<svg width="60" height="60" viewBox="0 0 60 60" fill="none" xmlns="http://www.w3.org/2000/svg">
<circle cx="30" cy="30" r="30" fill="#FFA556"/>
<path d="M25.1875 31.3283H34.8125C35.1746 31.3283 35.4688 31.0445 35.4688 30.6954V21.4142C35.4688 21.0651 35.1746 20.7814 34.8125 20.7814H33.7658L30.3828 18.4399C30.1542 18.2817 29.8458 18.2817 29.6172 18.4399L26.2342 20.7824L25.1875 20.7814C24.8255 20.7814 24.5312 21.0651 24.5312 21.4142V30.6954C24.5312 31.0445 24.8255 31.3283 25.1875 31.3283V31.3283ZM34.1562 30.0626H25.8436V22.0469H26.4637H26.4648H34.1561L34.1562 30.0626ZM29.9999 19.733L31.5158 20.7824H28.4851L29.9999 19.733Z" fill="white"/>
<path d="M41.1262 39.4141H39.9012V34.0225C40.6482 33.762 41.1863 33.0775 41.1863 32.2686C41.1863 31.236 40.3157 30.3965 39.2449 30.3965C38.1741 30.3965 37.3035 31.236 37.3035 32.2686C37.3035 32.624 37.4129 32.9531 37.5911 33.2367C35.5393 34.0847 32.8334 34.5625 30.0006 34.5625C27.1721 34.5625 24.4695 34.0858 22.4188 33.2399C22.5992 32.9562 22.7086 32.6251 22.7086 32.2686C22.7086 31.236 21.838 30.3965 20.7672 30.3965C19.6965 30.3965 18.8258 31.236 18.8258 32.2686C18.8258 33.0775 19.364 33.762 20.111 34.0225V39.4141H18.875C18.513 39.4141 18.2188 39.6979 18.2188 40.047C18.2188 40.3961 18.513 40.6798 18.875 40.6798H22.6486C23.0106 40.6798 23.3048 40.3961 23.3048 40.047C23.3048 39.6979 23.0106 39.4141 22.6486 39.4141H21.4236V34.184C23.6953 35.2292 26.7775 35.8282 30.0008 35.8282C33.2284 35.8282 36.3162 35.227 38.589 34.1797V39.4142H37.353C36.991 39.4142 36.6968 39.6979 36.6968 40.047C36.6968 40.3962 36.991 40.6799 37.353 40.6799H41.1266C41.4886 40.6799 41.7829 40.3962 41.7829 40.047C41.7829 39.6979 41.4886 39.4142 41.1266 39.4142L41.1262 39.4141ZM20.7671 31.6622C21.1138 31.6622 21.396 31.9343 21.396 32.2686C21.396 32.603 21.1138 32.8751 20.7671 32.8751C20.4204 32.8751 20.1382 32.603 20.1382 32.2686C20.1382 31.9343 20.4204 31.6622 20.7671 31.6622ZM39.2448 31.6622C39.5916 31.6622 39.8738 31.9343 39.8738 32.2686C39.8738 32.603 39.5916 32.8751 39.2448 32.8751C38.8981 32.8751 38.6159 32.603 38.6159 32.2686C38.6159 31.9343 38.8981 31.6622 39.2448 31.6622Z" fill="white"/>
</svg>
