<svg id="Слой_1" data-name="Слой 1" xmlns="http://www.w3.org/2000/svg" viewBox="0 0 60 60"><defs><style>.cls-1,.cls-2{fill:#ffa556;}.cls-2,.cls-3{stroke:#fff;stroke-miterlimit:10;}.cls-3{fill:none;}</style></defs><circle class="cls-1" cx="30" cy="30" r="30"/><path class="cls-2" d="M19.84,22.41c1.19,2.25,5.16,3,9.91,2-.07-.24-1.73-6-5.84-6.6-.24,0-3-.43-4.1,1.21A3.52,3.52,0,0,0,19.84,22.41Z" transform="translate(0 0)"/><path class="cls-2" d="M40.06,22.41c-1.2,2.25-5.15,3-9.87,2,.07-.24,1.72-6,5.81-6.6.24,0,3-.43,4.08,1.21A3.55,3.55,0,0,1,40.06,22.41Z" transform="translate(0 0)"/><rect class="cls-2" x="17.53" y="25.22" width="9.13" height="5.07" rx="0.68"/><path class="cls-2" d="M33.63,25.22H41.8a.67.67,0,0,1,.67.67V30a.29.29,0,0,1-.29.29H33.63a.29.29,0,0,1-.29-.29v-4.5A.29.29,0,0,1,33.63,25.22Z"/><rect class="cls-2" x="26.66" y="25.22" width="6.68" height="16.08" rx="0.68"/><rect class="cls-2" x="18.93" y="30.29" width="7.73" height="11.01" rx="0.68"/><rect class="cls-2" x="33.34" y="30.29" width="7.73" height="11.01" rx="0.68"/><line class="cls-3" x1="22.33" y1="41.3" x2="38.63" y2="41.37"/></svg>