<svg width="180" height="180" viewBox="0 0 180 180" fill="none" xmlns="http://www.w3.org/2000/svg">
<circle cx="90" cy="90" r="90" fill="#02B2B6"/>
<path d="M113.104 77.9045H124.469C124.904 77.9045 125.322 77.7322 125.63 77.4246C125.938 77.117 126.11 76.7027 126.11 76.2638V46.8428C126.11 46.408 125.938 45.9897 125.63 45.682C125.322 45.3744 124.904 45.2021 124.469 45.2021H113.104C111.18 45.2514 111.451 47.3185 111.463 48.6639H91.673C89.1423 48.6598 86.6855 49.5088 84.7004 51.0715L71.6205 61.3829C69.9594 62.6831 68.9381 64.6314 68.8191 66.7314C68.7453 68.8354 69.5533 70.8739 71.0463 72.3587C72.5393 73.8394 74.586 74.6351 76.686 74.5489C76.6983 77.6743 77.9042 80.6807 80.0657 82.9448H54.5297C54.0949 82.9448 53.6766 83.1171 53.3689 83.4247C53.0613 83.7323 52.889 84.1507 52.889 84.5855V98.4203C52.889 98.855 53.0613 99.2734 53.3689 99.5811C53.6765 99.8887 54.0949 100.061 54.5297 100.061H59.3162V132.155C59.3162 132.59 59.4885 133.008 59.7961 133.316C60.1037 133.624 60.5221 133.796 60.9569 133.796H118.042C118.477 133.796 118.895 133.624 119.203 133.316C119.511 133.008 119.683 132.59 119.683 132.155V100.061H124.469C124.904 100.061 125.323 99.8887 125.63 99.5811C125.938 99.2734 126.11 98.8551 126.11 98.4203V84.5855C126.11 84.1507 125.938 83.7324 125.63 83.4247C125.323 83.1171 124.904 82.9448 124.469 82.9448H97.7438C99.9012 80.6972 101.119 77.7112 101.144 74.5941C104.064 74.4997 109.076 75.1888 111.463 73.1176C111.623 74.6065 110.733 77.8507 113.104 77.9041L113.104 77.9045ZM114.745 48.4835H122.829V74.6232H114.745V48.4835ZM116.402 130.515H62.5976V100.061H116.402V130.515ZM122.829 86.2257V96.7793H56.1706V86.2257H122.829ZM92.088 82.8666C92.0429 82.883 92.0101 82.9199 91.9649 82.9445H85.8249C81.7602 81.4433 79.3485 77.2474 80.1032 72.9777C80.8579 68.708 84.5616 65.5907 88.8969 65.5743C90.0167 65.3118 88.4868 67.1821 88.7329 68.4659C88.737 71.8498 91.4768 74.5895 94.8606 74.5936H97.8629C97.8219 78.2768 95.5332 81.5581 92.0879 82.8706L92.088 82.8666ZM111.464 69.2082L109.339 70.5822C108.605 71.0662 107.739 71.3205 106.858 71.3123H94.8603C93.597 71.2753 92.5019 70.4222 92.1574 69.2041C91.8129 67.9901 92.2968 66.6898 93.355 65.9925C94.2697 65.2953 96.4845 65.73 97.5878 65.5045L97.5837 65.5086C98.7731 65.1148 99.7657 64.2781 100.352 63.1706C101.242 61.7555 101.337 56.6615 98.3548 57.3136C95.8488 58.2201 98.9085 61.1732 96.8003 62.2929H96.8044C95.332 62.1453 93.8472 62.3339 92.4608 62.8466C89.3724 61.8787 86.0255 62.1904 83.1708 63.7121C80.3119 65.2337 78.1874 67.8383 77.2727 70.9431C75.8617 71.3533 74.3441 70.9841 73.2778 69.9792C72.4657 69.163 72.0391 68.0351 72.1088 66.8867C72.1785 65.7383 72.7404 64.6718 73.6468 63.9622L86.7267 53.655C88.1335 52.5435 89.8767 51.9406 91.6731 51.9446H111.464L111.464 69.2082Z" fill="white"/>
</svg>
