<svg width="60" height="60" viewBox="0 0 60 60" fill="none" xmlns="http://www.w3.org/2000/svg">
<circle cx="30" cy="30" r="30" fill="#FFA556"/>
<path d="M40.969 21.56C40.069 18.9397 38.9394 18.3503 38.1296 18.3197C38.0898 18.3092 38.0499 18.2998 37.9995 18.2998C37.9398 18.2998 37.8695 18.3104 37.8191 18.3396C36.7691 18.4896 35.9487 19.5795 35.3593 21.0596C33.3987 22.5396 30.4198 23.6096 26.7496 24.1697C23.95 24.5892 21.6391 24.5892 21.0694 24.5892H20.9991C20.9592 24.5892 20.9288 24.5892 20.8889 24.5997C20.869 24.5997 20.8491 24.6103 20.8292 24.6103H20.7893C20.7096 24.6103 20.6194 24.5997 20.5292 24.5904C20.419 24.5798 20.2995 24.5704 20.1694 24.5704C17.869 24.5704 16 26.4501 16 28.7599C16 31.0498 17.8703 32.92 20.1694 32.92H20.3194L22.0796 39.3394C22.1393 39.5598 22.3397 39.7098 22.56 39.7098H26.2902C26.3301 39.7098 26.3699 39.7098 26.4098 39.6992C26.7203 39.6195 27.2793 39.3289 27.4703 38.6891C27.7199 37.8488 27.2406 36.7988 26.0008 35.4689C25.0411 34.4493 24.9707 33.8786 25.0106 33.629C25.041 33.4485 25.1606 33.2892 25.361 33.1591C28.4312 33.4989 32.5715 34.3591 35.3606 36.4591C35.9711 37.9896 36.8207 39.1193 37.9305 39.1989C37.961 39.1989 37.9809 39.2095 38.0102 39.2095H38.0207H38.0711C40.6317 39.2095 42.011 33.82 42.011 28.7692C41.9993 26.0504 41.6302 23.4898 40.9692 21.5599L40.969 21.56ZM37.7791 28.76C37.7791 30.26 36.7186 31.5397 35.2995 31.8503C35.2995 31.8304 35.2995 31.8105 35.2889 31.7906C35.269 31.5808 35.2385 31.3605 35.2292 31.1402C35.2292 31.1097 35.2292 31.0898 35.2186 31.0605C35.1987 30.8402 35.1881 30.6105 35.1682 30.3808C35.1682 30.341 35.1577 30.2906 35.1577 30.2507C35.1471 30.021 35.1377 29.8007 35.1272 29.571V29.4515C35.1167 29.2113 35.1167 28.971 35.1167 28.732C35.1167 28.4918 35.1167 28.2515 35.1272 28.0218V27.9023C35.1377 27.6726 35.1471 27.4523 35.1577 27.232C35.1577 27.1921 35.1577 27.1417 35.1682 27.1019C35.1788 26.8722 35.1987 26.6519 35.2186 26.4316C35.2186 26.4117 35.2186 26.3812 35.2292 26.3613C35.2491 26.1409 35.269 25.9312 35.2889 25.7214C35.2889 25.7015 35.2889 25.6816 35.2995 25.6617C36.7198 25.9804 37.7791 27.2601 37.7791 28.7601V28.76ZM16.9993 28.7507C16.9993 27.1311 18.2099 25.7905 19.7697 25.5902C19.3197 26.5698 19.2493 28.0101 19.2493 28.7402C19.2493 29.4796 19.3091 30.9105 19.7591 31.8797C18.2099 31.6898 16.9993 30.3609 16.9993 28.7507ZM25.2691 36.1406C26.5687 37.5304 26.5687 38.1702 26.509 38.38C26.4586 38.5698 26.2793 38.6601 26.1984 38.6906H22.9395L21.3598 32.9108C21.8602 32.9108 22.8704 32.9307 24.1594 33.0303C24.0997 33.1604 24.0493 33.2998 24.0294 33.4498C23.8887 34.2303 24.2989 35.1104 25.2692 36.1404L25.2691 36.1406ZM25.2996 32.1398C23.2699 31.9194 21.6996 31.9101 21.1794 31.9194C21.1489 31.9089 21.1091 31.8995 21.0693 31.889C21.0294 31.869 20.979 31.8491 20.9392 31.8491C20.6896 31.6487 20.2595 30.7394 20.2595 28.739C20.2595 26.7996 20.679 25.7285 20.9896 25.5995C21.0001 25.5995 21.0001 25.589 21.0095 25.589C21.04 25.589 21.0599 25.589 21.0892 25.5784H21.3388C23.1494 25.5784 30.1291 25.3886 34.8493 22.589C34.6395 23.3695 34.479 24.1992 34.3688 25.0195C34.3688 25.0195 34.3583 25.0195 34.3583 25.03C34.1977 26.2195 34.0981 27.4699 34.0981 28.7401C34.0981 30.0304 34.1977 31.3007 34.3583 32.4901C34.4684 33.2999 34.6383 34.1202 34.8387 34.9007C31.9196 33.1804 28.1298 32.4503 25.2996 32.1398L25.2996 32.1398ZM38.2593 38.1398C37.7496 37.2902 37.0593 36.5202 36.1992 35.8394C35.8992 35.039 35.6296 34.0394 35.4386 32.8394C36.7581 32.5698 37.8386 31.6898 38.3988 30.4991C38.4491 30.4288 38.489 30.3491 38.4984 30.2694C38.6882 29.7995 38.7878 29.2897 38.7878 28.7495C38.7878 28.2198 38.6882 27.7101 38.4984 27.2389C38.4878 27.1393 38.448 27.0491 38.3788 26.9694C37.8292 25.7999 36.7394 24.9292 35.4386 24.6597C35.6284 23.4702 35.8886 22.4694 36.178 21.6796C37.0476 20.9893 37.7577 20.1995 38.2675 19.3393C38.878 19.5093 39.5272 20.4292 40.0276 21.8788C40.6581 23.6987 41.0073 26.1385 41.0073 28.7389C41.0073 31.3393 40.6675 33.7687 40.037 35.5885C39.5296 37.0697 38.8288 38.0002 38.2593 38.1396L38.2593 38.1398ZM32.3496 25.7204C32.4398 25.9805 32.3098 26.27 32.0496 26.3602C29.1399 27.3903 25.95 27.5602 24.1698 27.5602C23.8698 27.5602 23.6097 27.5602 23.3999 27.5496C23.1198 27.5391 22.9101 27.3094 22.9194 27.0399C22.93 26.7704 23.1596 26.5395 23.4292 26.5594C24.8389 26.5992 28.4695 26.5793 31.7098 25.4297C31.9688 25.3207 32.2594 25.4602 32.3496 25.7203V25.7204Z" fill="white"/>
</svg>
