
<svg width="60" height="60" viewBox="0 0 60 60" fill="none" xmlns="http://www.w3.org/2000/svg">
<circle cx="30" cy="30" r="30" fill="#FFA556"/>
<path d="M42.2032 30.0846C41.3413 29.2239 39.9227 29.1891 39.0171 30.0076L33.8186 34.4669C33.5725 33.7149 32.8506 33.2034 32.0336 33.2002H21.4952C21.259 32.5548 20.6279 32.1223 19.9191 32.1202H18.7991C17.8716 32.1213 17.1202 32.8458 17.1191 33.7402V41.3002C17.1202 42.1946 17.8716 42.9192 18.7991 42.9202H19.9191C20.6279 42.9181 21.259 42.4857 21.4952 41.8402H23.838C23.8457 41.8402 23.8523 41.836 23.8599 41.836L24.5665 42.1187H24.5676C26.7398 42.9824 29.1428 43.1533 31.422 42.6049C33.7024 42.0575 35.7413 40.8182 37.2384 39.0717L42.3375 33.1233H42.3364C43.1086 32.2268 43.0506 30.9137 42.203 30.0847L42.2032 30.0846ZM19.9191 41.8401H18.7991C18.4896 41.8401 18.2391 41.5986 18.2391 41.3001V33.7401C18.2391 33.4416 18.4896 33.2001 18.7991 33.2001H19.9191C20.2276 33.2001 20.478 33.4416 20.478 33.7401V41.3001C20.478 41.5986 20.2276 41.8401 19.9191 41.8401ZM23.278 40.7601H21.598V34.2801H23.278V40.7601ZM41.4735 32.4344L36.3756 38.3838C35.0302 39.9532 33.1992 41.0649 31.1519 41.5574C29.1033 42.0499 26.9463 41.896 24.9952 41.1197L24.398 40.8814V34.2801H32.0337C32.4022 34.2801 32.7183 34.5354 32.784 34.8845C32.8496 35.2346 32.6462 35.5806 32.3005 35.705L28.6801 37.015C28.3903 37.1194 28.2448 37.4305 28.3531 37.71C28.4646 37.9863 28.784 38.1266 29.0739 38.0264L32.6943 36.7175V36.7165C32.9196 36.631 33.1274 36.5076 33.3068 36.3505L39.772 30.806C40.2346 30.3842 40.962 30.4 41.4038 30.8419C41.849 31.2764 41.8785 31.9651 41.4738 32.4345L41.4735 32.4344ZM29.7146 32.0473V32.0463C29.8896 32.1443 30.104 32.1443 30.279 32.0463C30.5896 31.8712 37.886 27.7095 37.886 22.7723C37.886 21.5299 37.3753 20.3381 36.4653 19.4586C35.5553 18.579 34.3215 18.0833 33.033 18.0801C31.9283 18.0769 30.8565 18.4408 29.9967 19.1105C29.137 18.4408 28.0652 18.0769 26.9604 18.0801C25.6719 18.0833 24.4371 18.579 23.527 19.4586C22.6181 20.3382 22.1062 21.53 22.1073 22.7723C22.1073 27.7092 29.4039 31.871 29.7144 32.0473L29.7146 32.0473ZM26.9606 19.1602C27.9515 19.1581 28.902 19.5388 29.5998 20.217C29.8218 20.4206 30.1708 20.4206 30.3928 20.217C31.0906 19.5389 32.0421 19.1581 33.0331 19.1602C35.097 19.1655 36.7672 20.7823 36.766 22.7725C36.766 26.5895 31.3105 30.1449 29.9968 30.9462C28.681 30.1458 23.2275 26.5947 23.2275 22.7725H23.2264C23.2253 20.7823 24.8954 19.1656 26.9605 19.1602H26.9606ZM31.3126 27.3339C33.3853 25.6222 34.527 24.001 34.527 22.7723C34.5292 21.9739 33.8609 21.3242 33.033 21.32C32.7234 21.32 32.473 21.0784 32.473 20.78C32.473 20.4815 32.7234 20.24 33.033 20.24C34.4789 20.2452 35.6481 21.378 35.6459 22.7723C35.6459 24.7583 33.6848 26.7958 32.0398 28.1555C31.9392 28.2378 31.809 28.2831 31.6767 28.2821C31.4448 28.2779 31.2392 28.1376 31.1582 27.9277C31.0784 27.7189 31.1396 27.4826 31.3124 27.3339L31.3126 27.3339Z" fill="white"/>
</svg>
