<svg width="60" height="60" viewBox="0 0 60 60" fill="none" xmlns="http://www.w3.org/2000/svg">
<circle cx="30" cy="30" r="30" fill="#FFA556"/>
<path d="M43.9059 39.8125H42.8747V30.0155C42.8747 29.8788 42.8206 29.7474 42.7239 29.6507C42.6272 29.554 42.4957 29.4998 42.3591 29.4998H37.7186V20.7344C37.7186 20.5977 37.6645 20.4663 37.5678 20.3696C37.4711 20.2729 37.3396 20.2188 37.203 20.2188H31.0155V17.6406C31.0155 17.3557 30.7847 17.125 30.4998 17.125C30.215 17.125 29.9842 17.3557 29.9842 17.6406V20.2188H23.7967C23.5118 20.2188 23.2811 20.4495 23.2811 20.7344V29.4998H18.6406C18.3557 29.4998 18.125 29.7306 18.125 30.0155V39.8125H17.0938C16.8089 39.8125 16.5781 40.0432 16.5781 40.3281C16.5781 40.613 16.8089 40.8438 17.0938 40.8438H43.9063C44.1911 40.8438 44.4219 40.613 44.4219 40.3281C44.4219 40.0432 44.1911 39.8125 43.9063 39.8125L43.9059 39.8125ZM41.8434 30.5313V39.8125H37.7184V36.7188H39.2653C39.5502 36.7188 39.7809 36.488 39.7809 36.2031C39.7809 35.9183 39.5502 35.6875 39.2653 35.6875H37.7184V33.625H39.2653C39.5502 33.625 39.7809 33.3943 39.7809 33.1094C39.7809 32.8245 39.5502 32.5938 39.2653 32.5938H37.7184V30.5313H41.8434ZM19.1559 30.5313H23.2809V32.5938H21.7341C21.4492 32.5938 21.2184 32.8245 21.2184 33.1094C21.2184 33.3943 21.4492 33.625 21.7341 33.625H23.2809V35.6875H21.7341C21.4492 35.6875 21.2184 35.9183 21.2184 36.2031C21.2184 36.488 21.4492 36.7188 21.7341 36.7188H23.2809V39.8125H19.1559V30.5313ZM24.3122 21.25H36.6872V39.8125H33.5934V33.1096C33.5934 32.9729 33.5393 32.8414 33.4426 32.7447C33.3459 32.6481 33.2145 32.5939 33.0778 32.5939H27.9216C27.6367 32.5939 27.4059 32.8247 27.4059 33.1096V39.8125H24.3122L24.3122 21.25ZM28.4372 39.8125V33.625H32.5622V39.8125H28.4372Z" fill="white"/>
<path d="M28.9531 30.5313C29.238 30.5313 29.4688 30.3005 29.4688 30.0156C29.4688 29.7307 29.238 29.5 28.9531 29.5H26.8906C26.6057 29.5 26.375 29.7307 26.375 30.0156C26.375 30.3005 26.6057 30.5313 26.8906 30.5313H28.9531Z" fill="white"/>
<path d="M32.0469 30.5313H34.1094C34.3943 30.5313 34.625 30.3005 34.625 30.0156C34.625 29.7307 34.3943 29.5 34.1094 29.5H32.0469C31.762 29.5 31.5312 29.7307 31.5312 30.0156C31.5312 30.3005 31.762 30.5313 32.0469 30.5313Z" fill="white"/>
<path d="M26.8906 27.4375H28.9531C29.238 27.4375 29.4688 27.2068 29.4688 26.9219C29.4688 26.637 29.238 26.4062 28.9531 26.4062H26.8906C26.6057 26.4062 26.375 26.637 26.375 26.9219C26.375 27.2068 26.6057 27.4375 26.8906 27.4375Z" fill="white"/>
<path d="M32.0469 27.4375H34.1094C34.3943 27.4375 34.625 27.2068 34.625 26.9219C34.625 26.637 34.3943 26.4062 34.1094 26.4062H32.0469C31.762 26.4062 31.5312 26.637 31.5312 26.9219C31.5312 27.2068 31.762 27.4375 32.0469 27.4375Z" fill="white"/>
<path d="M26.8906 24.3438H28.9531C29.238 24.3438 29.4688 24.113 29.4688 23.8281C29.4688 23.5432 29.238 23.3125 28.9531 23.3125H26.8906C26.6057 23.3125 26.375 23.5432 26.375 23.8281C26.375 24.113 26.6057 24.3438 26.8906 24.3438Z" fill="white"/>
<path d="M32.0469 24.3438H34.1094C34.3943 24.3438 34.625 24.113 34.625 23.8281C34.625 23.5432 34.3943 23.3125 34.1094 23.3125H32.0469C31.762 23.3125 31.5312 23.5432 31.5312 23.8281C31.5312 24.113 31.762 24.3438 32.0469 24.3438Z" fill="white"/>
</svg>
