<?xml version="1.0" encoding="UTF-8"?>
<!DOCTYPE svg PUBLIC "-//W3C//DTD SVG 1.1//EN" "http://www.w3.org/Graphics/SVG/1.1/DTD/svg11.dtd">
<svg xmlns="http://www.w3.org/2000/svg" version="1.1" width="2517px" height="392px" style="shape-rendering:geometricPrecision; text-rendering:geometricPrecision; image-rendering:optimizeQuality; fill-rule:evenodd; clip-rule:evenodd" xmlns:xlink="http://www.w3.org/1999/xlink">
<g><path style="opacity:0.999" fill="#e40423" d="M 954.5,91.5 C 1019.17,91.5 1083.83,91.5 1148.5,91.5C 1148.5,156.167 1148.5,220.833 1148.5,285.5C 1083.83,285.5 1019.17,285.5 954.5,285.5C 954.5,220.833 954.5,156.167 954.5,91.5 Z"/></g>
<g><path style="opacity:0.94" fill="#f4f4f4" d="M 1888.5,91.5 C 1889.98,93.0938 1891.48,94.7605 1893,96.5C 1894.67,93.8333 1896.33,93.8333 1898,96.5C 1899.51,94.7923 1901.01,93.1256 1902.5,91.5C 1904.18,93.5398 1905.84,95.5398 1907.5,97.5C 1908.96,96.5291 1910.3,96.8624 1911.5,98.5C 1913.41,97.627 1915.25,96.627 1917,95.5C 1917.5,98.146 1917.66,100.813 1917.5,103.5C 1919.92,103.192 1922.26,103.526 1924.5,104.5C 1921.17,109.663 1918.5,115.163 1916.5,121C 1916.63,122.059 1917.13,122.892 1918,123.5C 1920.29,122.21 1922.29,120.543 1924,118.5C 1925.51,119.257 1926.85,120.257 1928,121.5C 1931.5,118.754 1935.5,117.421 1940,117.5C 1946.05,118.87 1952.22,119.704 1958.5,120C 1961.46,123.644 1964.96,126.478 1969,128.5C 1971.96,127.191 1974.96,125.857 1978,124.5C 1979.99,126.329 1981.83,128.329 1983.5,130.5C 1985.06,131.074 1986.56,131.74 1988,132.5C 1989.7,137.678 1988.53,142.178 1984.5,146C 1991.3,146.913 1997.97,148.413 2004.5,150.5C 2003.42,153.653 2002.09,156.653 2000.5,159.5C 2001.05,161.556 2002.21,163.223 2004,164.5C 2005.45,168.724 2003.95,171.224 1999.5,172C 1994.64,171.304 1991.3,173.137 1989.5,177.5C 1992.76,180.929 1996.42,183.763 2000.5,186C 1999.33,190.502 1996.67,193.836 1992.5,196C 1993.38,199.45 1994.22,202.95 1995,206.5C 1997.42,208.813 2000.26,210.48 2003.5,211.5C 2002.11,215.286 2000.44,218.952 1998.5,222.5C 1998.98,223.478 1999.64,224.311 2000.5,225C 1998.17,226.667 1995.83,228.333 1993.5,230C 1989.38,230.246 1985.38,230.412 1981.5,230.5C 1978.95,234.94 1976.95,239.606 1975.5,244.5C 1976.77,247.542 1978.44,250.376 1980.5,253C 1974.78,253.788 1969.11,253.621 1963.5,252.5C 1962.55,254.045 1962.21,255.712 1962.5,257.5C 1959.4,257.846 1956.56,257.179 1954,255.5C 1949.47,259.351 1944.3,262.017 1938.5,263.5C 1940.11,264.427 1941.78,265.261 1943.5,266C 1944.83,266.667 1944.83,267.333 1943.5,268C 1936.18,272.159 1928.52,275.492 1920.5,278C 1920.55,279.351 1920.05,280.518 1919,281.5C 1911.28,283.522 1903.45,284.855 1895.5,285.5C 1887.59,284.618 1879.76,283.285 1872,281.5C 1870.95,280.518 1870.45,279.351 1870.5,278C 1861.32,275.078 1852.66,271.078 1844.5,266C 1847.22,264.092 1850.22,262.759 1853.5,262C 1847.56,261.576 1842.22,259.576 1837.5,256C 1835.19,255.503 1832.86,255.337 1830.5,255.5C 1830.5,253.833 1830.5,252.167 1830.5,250.5C 1824.5,251.643 1818.5,251.643 1812.5,250.5C 1814.14,247.567 1815.47,244.567 1816.5,241.5C 1815.43,236.024 1813.26,231.024 1810,226.5C 1803.44,229.049 1797.61,227.715 1792.5,222.5C 1793.59,219.636 1793.09,216.969 1791,214.5C 1790.33,212.833 1790.33,211.167 1791,209.5C 1796.67,207.333 1799.51,203.166 1799.5,197C 1796.15,193.812 1793.82,189.979 1792.5,185.5C 1792.83,184.833 1793.17,184.167 1793.5,183.5C 1798.14,182.021 1802.14,179.521 1805.5,176C 1803.88,175.385 1802.55,174.385 1801.5,173C 1795.61,173.139 1790.78,170.972 1787,166.5C 1787.12,163.336 1788.62,160.836 1791.5,159C 1789.46,156.414 1787.79,153.58 1786.5,150.5C 1792.91,149.488 1799.24,148.154 1805.5,146.5C 1806.84,145.312 1807.51,143.812 1807.5,142C 1806.01,139.025 1805.01,135.859 1804.5,132.5C 1805.87,132.657 1807.21,132.49 1808.5,132C 1809.4,129.798 1810.4,127.632 1811.5,125.5C 1815.02,128.397 1819.02,129.563 1823.5,129C 1829.01,121.716 1836.35,118.05 1845.5,118C 1851.92,116.607 1857.76,117.773 1863,121.5C 1864.15,120.257 1865.49,119.257 1867,118.5C 1873.66,126.118 1875.66,125.118 1873,115.5C 1870.83,111.833 1868.67,108.167 1866.5,104.5C 1868.99,104.218 1871.65,104.218 1874.5,104.5C 1874.34,101.813 1874.5,99.146 1875,96.5C 1876.78,97.2401 1878.62,97.9067 1880.5,98.5C 1881.19,97.9747 1881.69,97.3081 1882,96.5C 1882.69,97.3567 1883.52,98.0233 1884.5,98.5C 1886.1,96.3021 1887.43,93.9687 1888.5,91.5 Z"/></g>
<g><path style="opacity:1" fill="#1a1a1a" d="M 1889.5,99.5 C 1891.05,99.8212 1891.71,100.821 1891.5,102.5C 1888.75,102.598 1888.09,101.598 1889.5,99.5 Z"/></g>
<g><path style="opacity:1" fill="#676767" d="M 1900.5,98.5 C 1902.56,99.7514 1902.89,101.418 1901.5,103.5C 1900.55,101.955 1900.21,100.288 1900.5,98.5 Z"/></g>
<g><path style="opacity:1" fill="#171717" d="M 1894.5,100.5 C 1897.24,101.938 1899.58,103.938 1901.5,106.5C 1903.43,105.62 1905.26,104.62 1907,103.5C 1909.23,103.978 1911.39,104.645 1913.5,105.5C 1912.91,106.799 1911.91,107.632 1910.5,108C 1912.26,108.202 1913.92,108.702 1915.5,109.5C 1913.9,112.314 1912.9,115.314 1912.5,118.5C 1906.78,116.945 1900.94,115.945 1895,115.5C 1889.86,115.214 1885.19,116.548 1881,119.5C 1879.9,116.136 1878.4,112.97 1876.5,110C 1878.58,109.808 1880.58,109.308 1882.5,108.5C 1883.24,106.459 1884.07,104.459 1885,102.5C 1889.17,107.912 1892.33,107.246 1894.5,100.5 Z"/></g>
<g><path style="opacity:1" fill="#1b1b1b" d="M 1877.5,102.5 C 1879.59,102.45 1880.92,103.45 1881.5,105.5C 1878.58,106.932 1877.25,105.932 1877.5,102.5 Z"/></g>
<g><path style="opacity:1" fill="#ebebeb" d="M 1894.5,104.5 C 1897.08,105.728 1899.41,107.395 1901.5,109.5C 1903.08,108.36 1904.74,107.86 1906.5,108C 1907.36,110.562 1909.03,112.395 1911.5,113.5C 1911.08,114.672 1910.41,115.672 1909.5,116.5C 1900.49,111.605 1891.33,111.272 1882,115.5C 1880.23,114.629 1879.56,113.296 1880,111.5C 1880.41,111.957 1880.91,112.291 1881.5,112.5C 1882.62,111.086 1883.62,109.586 1884.5,108C 1886.76,108.615 1889.09,108.948 1891.5,109C 1893.14,107.871 1894.14,106.371 1894.5,104.5 Z"/></g>
<g><path style="opacity:1" fill="#fefbfc" d="M 1028.5,106.5 C 1028.5,121.167 1028.5,135.833 1028.5,150.5C 1025.17,150.5 1021.83,150.5 1018.5,150.5C 1018.67,140.494 1018.5,130.494 1018,120.5C 1013.41,128.676 1009.08,137.009 1005,145.5C 1001.33,146.833 997.667,146.833 994,145.5C 989.907,136.978 985.573,128.645 981,120.5C 980.5,130.494 980.334,140.494 980.5,150.5C 977.167,150.5 973.833,150.5 970.5,150.5C 970.5,136.167 970.5,121.833 970.5,107.5C 975.5,107.5 980.5,107.5 985.5,107.5C 990.169,116.838 994.836,126.171 999.5,135.5C 1004.27,126.297 1008.77,116.964 1013,107.5C 1018.07,106.529 1023.24,106.195 1028.5,106.5 Z"/></g>
<g><path style="opacity:1" fill="#fdfbfb" d="M 1114.5,115.5 C 1113.51,126.988 1113.17,138.655 1113.5,150.5C 1110.17,150.5 1106.83,150.5 1103.5,150.5C 1103.5,138.833 1103.5,127.167 1103.5,115.5C 1096.83,115.5 1090.17,115.5 1083.5,115.5C 1083.5,112.5 1083.5,109.5 1083.5,106.5C 1100.17,106.5 1116.83,106.5 1133.5,106.5C 1133.5,109.5 1133.5,112.5 1133.5,115.5C 1127.17,115.5 1120.83,115.5 1114.5,115.5 Z"/></g>
<g><path style="opacity:0.983" fill="#00985e" d="M 187.5,108.5 C 190.833,108.5 194.167,108.5 197.5,108.5C 197.5,136.833 197.5,165.167 197.5,193.5C 192.821,193.334 188.155,193.501 183.5,194C 181.513,195.319 180.346,197.152 180,199.5C 179.5,224.831 179.333,250.164 179.5,275.5C 145.142,267.644 123.309,246.644 114,212.5C 106.81,168.715 122.644,136.549 161.5,116C 170.024,112.54 178.691,110.04 187.5,108.5 Z M 176.5,158.5 C 186.492,157.327 190.992,161.66 190,171.5C 187.367,176.732 183.201,178.565 177.5,177C 171.902,173.848 170.069,169.348 172,163.5C 173.707,161.963 175.207,160.296 176.5,158.5 Z"/></g>
<g><path style="opacity:0.973" fill="#00985e" d="M 204.5,108.5 C 241.511,114.675 265.678,135.675 277,171.5C 285.069,211.648 272.235,243.148 238.5,266C 222.056,275.36 204.389,279.194 185.5,277.5C 185.5,252.5 185.5,227.5 185.5,202.5C 190.511,202.666 195.511,202.499 200.5,202C 202.049,200.786 203.215,199.286 204,197.5C 204.5,167.835 204.667,138.169 204.5,108.5 Z M 201.5,218.5 C 213.011,221.34 215.344,227.507 208.5,237C 200.233,240.2 194.9,237.533 192.5,229C 193.259,223.418 196.259,219.918 201.5,218.5 Z M 226.5,218.5 C 236.834,220.501 239.667,226.167 235,235.5C 226.135,240.819 220.302,238.486 217.5,228.5C 218.474,223.199 221.474,219.866 226.5,218.5 Z M 251.5,218.5 C 261.834,220.501 264.667,226.167 260,235.5C 251.135,240.819 245.302,238.486 242.5,228.5C 243.474,223.199 246.474,219.866 251.5,218.5 Z"/></g>
<g><path style="opacity:1" fill="#f4cfd2" d="M 985.5,107.5 C 980.5,107.5 975.5,107.5 970.5,107.5C 970.5,121.833 970.5,136.167 970.5,150.5C 973.833,150.5 977.167,150.5 980.5,150.5C 977.038,151.482 973.371,151.815 969.5,151.5C 969.5,136.5 969.5,121.5 969.5,106.5C 975.026,106.179 980.36,106.512 985.5,107.5 Z"/></g>
<g><path style="opacity:1" fill="#f2bdc3" d="M 1028.5,106.5 C 1029.5,121.324 1029.83,136.324 1029.5,151.5C 1025.63,151.815 1021.96,151.482 1018.5,150.5C 1021.83,150.5 1025.17,150.5 1028.5,150.5C 1028.5,135.833 1028.5,121.167 1028.5,106.5 Z"/></g>
<g><path style="opacity:0.208" fill="#292413" d="M 602.5,111.5 C 594.405,114.614 586.072,117.614 577.5,120.5C 577.47,119.503 577.97,118.836 579,118.5C 586.445,114.894 594.278,112.561 602.5,111.5 Z"/></g>
<g><path style="opacity:0.131" fill="#5d4e1a" d="M 638.5,111.5 C 640.952,112.065 643.285,112.732 645.5,113.5C 642.612,114.01 640.279,113.344 638.5,111.5 Z"/></g>
<g><path style="opacity:0.999" fill="#5b5546" d="M 602.5,111.5 C 608.5,111.5 614.5,111.5 620.5,111.5C 623.924,112.766 627.257,114.433 630.5,116.5C 632.223,119.94 632.89,123.606 632.5,127.5C 631.935,129.42 630.935,131.087 629.5,132.5C 630.324,129.236 630.658,125.902 630.5,122.5C 630.822,120.278 630.155,118.444 628.5,117C 598.237,113.646 573.07,123.479 553,146.5C 550.667,150.167 548.333,153.833 546,157.5C 545.023,159.74 544.523,162.073 544.5,164.5C 541.976,161.013 541.976,157.346 544.5,153.5C 546.782,151.933 547.449,149.933 546.5,147.5C 545.676,149.421 544.343,150.754 542.5,151.5C 545.797,144.864 550.463,139.53 556.5,135.5C 562.196,131.035 567.863,126.702 573.5,122.5C 574.287,120.896 575.62,120.229 577.5,120.5C 586.072,117.614 594.405,114.614 602.5,111.5 Z"/></g>
<g><path style="opacity:0.976" fill="#e7c54d" d="M 620.5,111.5 C 626.5,111.5 632.5,111.5 638.5,111.5C 640.279,113.344 642.612,114.01 645.5,113.5C 645.791,114.649 646.624,115.316 648,115.5C 650.462,116.159 652.962,116.493 655.5,116.5C 656.995,116.989 658.329,117.655 659.5,118.5C 663.765,121.935 667.598,125.935 671,130.5C 672.225,135.085 672.725,139.752 672.5,144.5C 671.5,145.833 670.5,147.167 669.5,148.5C 671.256,141.912 670.756,135.578 668,129.5C 657.236,121.968 645.403,117.968 632.5,117.5C 633.788,120.967 633.788,124.3 632.5,127.5C 632.89,123.606 632.223,119.94 630.5,116.5C 627.257,114.433 623.924,112.766 620.5,111.5 Z"/></g>
<g><path style="opacity:0.229" fill="#584a1c" d="M 645.5,113.5 C 649.207,113.604 652.54,114.604 655.5,116.5C 652.962,116.493 650.462,116.159 648,115.5C 646.624,115.316 645.791,114.649 645.5,113.5 Z"/></g>
<g><path style="opacity:1" fill="#4a4948" d="M 630.5,122.5 C 599.172,118.88 574.005,129.547 555,154.5C 551.722,159.052 549.556,164.052 548.5,169.5C 551.518,169.704 554.518,170.037 557.5,170.5C 564.157,169.783 570.823,169.116 577.5,168.5C 574.829,170.118 571.829,170.785 568.5,170.5C 562.536,171.307 556.536,171.64 550.5,171.5C 547.089,170.42 545.089,168.086 544.5,164.5C 544.523,162.073 545.023,159.74 546,157.5C 548.333,153.833 550.667,150.167 553,146.5C 573.07,123.479 598.237,113.646 628.5,117C 630.155,118.444 630.822,120.278 630.5,122.5 Z"/></g>
<g><path style="opacity:1" fill="#141310" d="M 1889.5,117.5 C 1898.49,116.263 1906.33,118.597 1913,124.5C 1911.68,133.115 1910.68,141.782 1910,150.5C 1914.75,153.459 1919.58,156.293 1924.5,159C 1926.74,160.739 1928.41,162.906 1929.5,165.5C 1928.68,166.386 1927.68,166.719 1926.5,166.5C 1925.71,161.224 1922.71,159.391 1917.5,161C 1914.14,162.899 1912.14,165.732 1911.5,169.5C 1919.53,169.169 1927.53,169.502 1935.5,170.5C 1934.67,172.167 1933.83,173.833 1933,175.5C 1932.67,196.167 1932.33,216.833 1932,237.5C 1930.72,246.114 1925.89,251.614 1917.5,254C 1909.69,253.501 1902.36,255.001 1895.5,258.5C 1888.64,255.001 1881.31,253.501 1873.5,254C 1866.31,252.14 1861.81,247.64 1860,240.5C 1859.67,220.5 1859.33,200.5 1859,180.5C 1858.69,176.871 1857.52,173.538 1855.5,170.5C 1863.14,169.503 1870.8,169.169 1878.5,169.5C 1877.68,164.512 1874.85,161.178 1870,159.5C 1866.22,160.441 1864.06,162.774 1863.5,166.5C 1862.5,166.5 1861.5,166.5 1860.5,166.5C 1861.09,163.386 1862.76,160.886 1865.5,159C 1870.91,156.548 1876.07,153.714 1881,150.5C 1880.52,142.085 1879.52,133.751 1878,125.5C 1878.47,124.069 1879.3,122.903 1880.5,122C 1883.59,120.454 1886.59,118.954 1889.5,117.5 Z"/></g>
<g><path style="opacity:1" fill="#161616" d="M 1833.5,245.5 C 1835.41,245.426 1836.58,244.426 1837,242.5C 1840.03,249.376 1845.2,253.376 1852.5,254.5C 1853.2,245.307 1850.53,237.307 1844.5,230.5C 1845.61,229.108 1846.94,227.941 1848.5,227C 1841.35,226.841 1835.19,224.341 1830,219.5C 1829.26,217.559 1829.42,215.726 1830.5,214C 1833.83,214.421 1837.16,215.254 1840.5,216.5C 1840.29,214.856 1840.62,213.356 1841.5,212C 1840,211.417 1838.67,210.584 1837.5,209.5C 1837.71,208.914 1838.04,208.414 1838.5,208C 1834.46,207.727 1830.96,206.227 1828,203.5C 1827.33,201.5 1827.33,199.5 1828,197.5C 1828.72,196.941 1829.56,196.608 1830.5,196.5C 1833.72,198.524 1837.22,199.857 1841,200.5C 1845.06,200.373 1845.56,198.873 1842.5,196C 1844.25,195.529 1845.91,194.862 1847.5,194C 1844.71,193.439 1842.38,192.106 1840.5,190C 1841.33,189.085 1842.33,188.419 1843.5,188C 1838.92,184.65 1837.42,180.15 1839,174.5C 1841.95,177.743 1845.45,178.743 1849.5,177.5C 1849.83,177.167 1850.17,176.833 1850.5,176.5C 1845.42,173.67 1844.25,169.67 1847,164.5C 1853.24,159.63 1859.74,155.13 1866.5,151C 1877.55,142.93 1877.05,135.763 1865,129.5C 1864.98,131.797 1865.15,134.131 1865.5,136.5C 1861.82,136.665 1858.15,136.499 1854.5,136C 1849.62,134.25 1846.96,130.75 1846.5,125.5C 1845.5,126.833 1844.5,128.167 1843.5,129.5C 1842.17,128.5 1840.83,127.5 1839.5,126.5C 1838.59,127.79 1838.76,129.123 1840,130.5C 1844.06,134.786 1848.9,137.952 1854.5,140C 1845.99,144.783 1837.65,144.616 1829.5,139.5C 1828.35,142.106 1828.18,144.773 1829,147.5C 1831.68,150.35 1834.52,153.016 1837.5,155.5C 1833.83,157.667 1830.17,159.833 1826.5,162C 1818.81,170.69 1810.81,179.023 1802.5,187C 1806.55,187.434 1810.55,187.434 1814.5,187C 1813,188.5 1811.5,190 1810,191.5C 1808.7,199.037 1806.03,206.037 1802,212.5C 1801.25,213.126 1800.42,213.626 1799.5,214C 1801.73,215.081 1804.06,215.581 1806.5,215.5C 1805.33,223.131 1806.5,223.464 1810,216.5C 1810.51,214.122 1811.18,211.788 1812,209.5C 1815.49,206.554 1817.66,207.388 1818.5,212C 1817.97,214.808 1817.64,217.642 1817.5,220.5C 1817.62,224.32 1818.12,227.987 1819,231.5C 1817.72,229.283 1816.72,226.949 1816,224.5C 1815.79,219.742 1815.62,215.075 1815.5,210.5C 1814.19,215.288 1811.86,219.455 1808.5,223C 1805.83,223.667 1803.17,223.667 1800.5,223C 1799.27,221.413 1799.61,220.079 1801.5,219C 1798.4,218.398 1796.4,216.565 1795.5,213.5C 1797.39,211.96 1799.22,210.293 1801,208.5C 1802.71,202.933 1804.54,197.433 1806.5,192C 1803.06,191.783 1800.39,190.283 1798.5,187.5C 1802.75,184.756 1806.58,181.422 1810,177.5C 1814.95,168.881 1821.62,161.881 1830,156.5C 1827.49,152.713 1825.99,148.38 1825.5,143.5C 1825.51,140.316 1826.51,137.483 1828.5,135C 1831.1,137.167 1834.1,139.167 1837.5,141C 1840.83,141.667 1844.17,141.667 1847.5,141C 1841.92,136.845 1837.26,131.845 1833.5,126C 1836.55,123.062 1839.88,122.895 1843.5,125.5C 1846.28,121.829 1849.95,120.662 1854.5,122C 1850.51,125.713 1850.51,129.38 1854.5,133C 1856.83,133.667 1859.17,133.667 1861.5,133C 1859.85,128.314 1861.52,126.314 1866.5,127C 1879.53,133.901 1880.86,142.568 1870.5,153C 1864.25,156.708 1858.08,160.541 1852,164.5C 1850.69,166.134 1849.86,167.968 1849.5,170C 1850.42,172.583 1851.75,174.917 1853.5,177C 1852.75,180.307 1850.59,181.807 1847,181.5C 1840.94,179.424 1840.11,180.59 1844.5,185C 1846.5,185.833 1848.5,186.667 1850.5,187.5C 1849.69,188.814 1848.69,189.981 1847.5,191C 1849.7,192.043 1852.03,192.877 1854.5,193.5C 1852.72,195.893 1850.39,197.56 1847.5,198.5C 1848.5,199.333 1849.5,200.167 1850.5,201C 1843.97,203.24 1837.64,202.74 1831.5,199.5C 1830.1,201.782 1830.77,203.282 1833.5,204C 1836.48,204.498 1839.48,204.665 1842.5,204.5C 1842.5,206.167 1842.5,207.833 1842.5,209.5C 1844.53,209.338 1846.53,209.505 1848.5,210C 1847.62,211.586 1846.62,213.086 1845.5,214.5C 1846.64,215.891 1846.64,217.224 1845.5,218.5C 1841.14,220.313 1837.31,219.647 1834,216.5C 1834.61,219.46 1836.44,221.627 1839.5,223C 1843.83,224.456 1848.16,224.623 1852.5,223.5C 1853.61,224.723 1853.78,226.056 1853,227.5C 1851.5,229 1850,230.5 1848.5,232C 1853.19,237.578 1855.36,244.078 1855,251.5C 1855.89,254.284 1857.06,256.95 1858.5,259.5C 1849.93,260.479 1843.43,257.146 1839,249.5C 1837.89,251.037 1836.39,251.703 1834.5,251.5C 1834.48,249.435 1834.15,247.435 1833.5,245.5 Z"/></g>
<g><path style="opacity:1" fill="#efefef" d="M 1890.5,120.5 C 1896.04,120.087 1901.37,120.92 1906.5,123C 1907.36,123.689 1908.02,124.522 1908.5,125.5C 1904.32,127.757 1899.98,129.757 1895.5,131.5C 1891.02,129.757 1886.68,127.757 1882.5,125.5C 1884.89,123.309 1887.56,121.642 1890.5,120.5 Z"/></g>
<g><path style="opacity:1" fill="#fad342" d="M 669.5,148.5 C 669.5,149.833 669.5,151.167 669.5,152.5C 668.167,154.5 666.833,156.5 665.5,158.5C 666.055,154.885 667.055,151.385 668.5,148C 668.333,146.833 668.167,145.667 668,144.5C 658.249,135.471 646.749,130.304 633.5,129C 631.137,134.533 627.47,139.033 622.5,142.5C 623.754,139.907 625.42,137.573 627.5,135.5C 628.906,135.027 629.573,134.027 629.5,132.5C 630.935,131.087 631.935,129.42 632.5,127.5C 633.788,124.3 633.788,120.967 632.5,117.5C 645.403,117.968 657.236,121.968 668,129.5C 670.756,135.578 671.256,141.912 669.5,148.5 Z"/></g>
<g><path style="opacity:1" fill="#eeb4bb" d="M 1114.5,115.5 C 1114.5,127.5 1114.5,139.5 1114.5,151.5C 1110.63,151.815 1106.96,151.482 1103.5,150.5C 1106.83,150.5 1110.17,150.5 1113.5,150.5C 1113.17,138.655 1113.51,126.988 1114.5,115.5 Z"/></g>
<g><path style="opacity:1" fill="#3b3b3b" d="M 630.5,122.5 C 630.658,125.902 630.324,129.236 629.5,132.5C 629.573,134.027 628.906,135.027 627.5,135.5C 628.038,133.883 628.371,132.216 628.5,130.5C 602.893,128.56 581.726,137.227 565,156.5C 561.712,160.744 559.212,165.41 557.5,170.5C 554.518,170.037 551.518,169.704 548.5,169.5C 549.556,164.052 551.722,159.052 555,154.5C 574.005,129.547 599.172,118.88 630.5,122.5 Z"/></g>
<g><path style="opacity:0.141" fill="#231e0f" d="M 573.5,122.5 C 567.863,126.702 562.196,131.035 556.5,135.5C 560.8,129.502 566.466,125.168 573.5,122.5 Z"/></g>
<g><path style="opacity:0.999" fill="#5b5441" d="M 659.5,118.5 C 661.901,119.049 664.235,119.882 666.5,121C 670.146,123.302 673.813,125.636 677.5,128C 680.383,130.082 682.717,132.582 684.5,135.5C 686.122,138.29 688.288,140.623 691,142.5C 692.677,145.591 694.51,148.591 696.5,151.5C 695.957,151.56 695.624,151.893 695.5,152.5C 699.294,161.782 699.294,171.116 695.5,180.5C 695.5,181.167 695.167,181.5 694.5,181.5C 695.1,175.835 695.767,170.168 696.5,164.5C 694.947,157.393 691.78,151.06 687,145.5C 682.967,141.132 678.634,137.132 674,133.5C 673.823,137.356 673.323,141.023 672.5,144.5C 672.725,139.752 672.225,135.085 671,130.5C 667.598,125.935 663.765,121.935 659.5,118.5 Z"/></g>
<g><path style="opacity:1" fill="#e6e6e6" d="M 1882.5,130.5 C 1886.68,132.113 1891.01,133.113 1895.5,133.5C 1895.67,140.508 1895.5,147.508 1895,154.5C 1891.5,152.752 1888.17,150.752 1885,148.5C 1883.75,142.552 1882.91,136.552 1882.5,130.5 Z"/></g>
<g><path style="opacity:1" fill="#d2d2d2" d="M 1906.5,130.5 C 1907.98,130.238 1909.31,130.571 1910.5,131.5C 1909.02,136.416 1907.85,141.416 1907,146.5C 1904.42,150.208 1900.92,152.541 1896.5,153.5C 1896.33,147.158 1896.5,140.825 1897,134.5C 1900.29,133.243 1903.46,131.91 1906.5,130.5 Z"/></g>
<g><path style="opacity:1" fill="#171717" d="M 1963.5,151.5 C 1965.96,149.43 1968.63,147.596 1971.5,146C 1973.04,144.89 1973.7,143.39 1973.5,141.5C 1969.95,141.342 1968.61,139.675 1969.5,136.5C 1970.48,136.977 1971.31,137.643 1972,138.5C 1972.12,136.893 1971.62,135.393 1970.5,134C 1972.16,132.233 1973.33,132.733 1974,135.5C 1975.75,130.19 1977.25,130.19 1978.5,135.5C 1979.98,135.238 1981.31,135.571 1982.5,136.5C 1981.67,138.135 1981.5,139.802 1982,141.5C 1980.16,143.35 1978.16,143.683 1976,142.5C 1975.3,146.066 1973.47,148.9 1970.5,151C 1979.78,150.045 1988.78,151.378 1997.5,155C 1996.17,156.333 1994.83,157.667 1993.5,159C 1995.17,160.667 1996.83,162.333 1998.5,164C 1995.24,165.728 1991.91,165.894 1988.5,164.5C 1987.52,164.977 1986.69,165.643 1986,166.5C 1984.44,159.553 1985.94,158.72 1990.5,164C 1991.64,164.749 1992.64,164.583 1993.5,163.5C 1992.03,161.605 1990.36,159.939 1988.5,158.5C 1989.67,157.416 1991,156.583 1992.5,156C 1985.66,152.863 1978.66,152.196 1971.5,154C 1976.59,158.096 1980.59,163.096 1983.5,169C 1983.17,169.5 1982.83,170 1982.5,170.5C 1976.43,163.764 1970.1,157.431 1963.5,151.5 Z"/></g>
<g><path style="opacity:1" fill="#141414" d="M 1904.5,133.5 C 1905.24,133.369 1905.91,133.536 1906.5,134C 1904.44,136.444 1901.94,138.277 1899,139.5C 1898.33,138.5 1898.33,137.5 1899,136.5C 1900.88,135.391 1902.71,134.391 1904.5,133.5 Z"/></g>
<g><path style="opacity:1" fill="#232323" d="M 1886.5,135.5 C 1888.67,134.371 1890.67,134.871 1892.5,137C 1890.3,137.409 1888.3,136.909 1886.5,135.5 Z"/></g>
<g><path style="opacity:0.942" fill="#03a8f4" d="M 2288.5,136.5 C 2292.19,135.971 2295.36,136.971 2298,139.5C 2299.23,144.721 2299.9,150.054 2300,155.5C 2305.75,169.752 2315.59,173.586 2329.5,167C 2336.74,160.454 2339.57,152.287 2338,142.5C 2341.87,135.911 2346.87,134.911 2353,139.5C 2357.37,155.673 2353.2,169.173 2340.5,180C 2336.25,182.917 2331.58,184.75 2326.5,185.5C 2326.33,190.511 2326.5,195.511 2327,200.5C 2349.84,208.687 2358.34,224.52 2352.5,248C 2346.38,252.043 2341.54,250.876 2338,244.5C 2340.54,228.875 2334.21,219.542 2319,216.5C 2309.14,217.031 2302.8,222.031 2300,231.5C 2299.67,236.167 2299.33,240.833 2299,245.5C 2294.84,251.167 2290,251.834 2284.5,247.5C 2279.36,224.443 2287.86,208.776 2310,200.5C 2310.5,195.511 2310.67,190.511 2310.5,185.5C 2295.04,181.875 2285.88,172.208 2283,156.5C 2282.33,151.5 2282.33,146.5 2283,141.5C 2284.35,139.251 2286.18,137.584 2288.5,136.5 Z"/></g>
<g><path style="opacity:1" fill="#222222" d="M 627.5,135.5 C 625.42,137.573 623.754,139.907 622.5,142.5C 620.57,142.771 619.236,143.771 618.5,145.5C 618.5,144.5 618.5,143.5 618.5,142.5C 599.266,143.407 583.933,151.573 572.5,167C 574.473,167.495 576.473,167.662 578.5,167.5C 578.5,168.167 578.167,168.5 577.5,168.5C 570.823,169.116 564.157,169.783 557.5,170.5C 559.212,165.41 561.712,160.744 565,156.5C 581.726,137.227 602.893,128.56 628.5,130.5C 628.371,132.216 628.038,133.883 627.5,135.5 Z"/></g>
<g><path style="opacity:1" fill="#181818" d="M 1885.5,139.5 C 1885.56,138.957 1885.89,138.624 1886.5,138.5C 1888.93,139.023 1890.93,140.19 1892.5,142C 1892.17,142.5 1891.83,143 1891.5,143.5C 1889.21,142.533 1887.21,141.2 1885.5,139.5 Z"/></g>
<g><path style="opacity:1" fill="#121212" d="M 1903.5,138.5 C 1904.55,138.351 1905.55,138.517 1906.5,139C 1904.08,140.626 1901.58,142.126 1899,143.5C 1898.52,142.552 1898.35,141.552 1898.5,140.5C 1900.55,140.598 1902.22,139.931 1903.5,138.5 Z"/></g>
<g><path style="opacity:1" fill="#161616" d="M 1813.5,131.5 C 1815.02,131.511 1816.18,132.177 1817,133.5C 1817.41,133.043 1817.91,132.709 1818.5,132.5C 1819.75,134.006 1819.75,135.506 1818.5,137C 1819.79,137.49 1821.13,137.657 1822.5,137.5C 1822.5,140.833 1820.83,142.5 1817.5,142.5C 1818.16,145.713 1820.16,147.879 1823.5,149C 1825.64,150.422 1826.8,152.255 1827,154.5C 1820.17,158.667 1814.67,164.167 1810.5,171C 1806.98,170.851 1804.48,169.017 1803,165.5C 1799.29,168.323 1795.79,168.157 1792.5,165C 1797.12,161.956 1797.78,158.622 1794.5,155C 1799.92,152.113 1805.75,150.613 1812,150.5C 1815.65,150.645 1819.15,151.145 1822.5,152C 1818.69,149.876 1816.19,146.709 1815,142.5C 1812.22,143.685 1810.72,142.685 1810.5,139.5C 1811.55,139.649 1812.55,139.483 1813.5,139C 1807.27,136.682 1807.27,135.516 1813.5,135.5C 1813.5,134.167 1813.5,132.833 1813.5,131.5 Z"/></g>
<g><path style="opacity:1" fill="#2a2a2a" d="M 1885.5,144.5 C 1885.74,143.903 1886.24,143.57 1887,143.5C 1888.76,144.591 1890.6,145.591 1892.5,146.5C 1889.76,147.479 1887.43,146.812 1885.5,144.5 Z"/></g>
<g><path style="opacity:1" fill="#11110f" d="M 618.5,145.5 C 615.346,147.39 612.679,149.723 610.5,152.5C 606.827,154 603.494,156 600.5,158.5C 595.579,160.464 590.912,162.798 586.5,165.5C 583.779,165.963 581.112,166.629 578.5,167.5C 576.473,167.662 574.473,167.495 572.5,167C 583.933,151.573 599.266,143.407 618.5,142.5C 618.5,143.5 618.5,144.5 618.5,145.5 Z"/></g>
<g><path style="opacity:1" fill="#131313" d="M 1904.5,143.5 C 1905.24,143.369 1905.91,143.536 1906.5,144C 1904.51,145.999 1902.17,147.499 1899.5,148.5C 1898.61,147.675 1898.28,146.675 1898.5,145.5C 1900.79,145.405 1902.79,144.738 1904.5,143.5 Z"/></g>
<g><path style="opacity:1" fill="#aa8810" d="M 622.5,142.5 C 619.477,146.844 615.477,150.177 610.5,152.5C 612.679,149.723 615.346,147.39 618.5,145.5C 619.236,143.771 620.57,142.771 622.5,142.5 Z"/></g>
<g><path style="opacity:0.024" fill="#231e0f" d="M 684.5,135.5 C 687.082,137.232 689.582,139.232 692,141.5C 695.302,145.941 698.135,150.607 700.5,155.5C 699,154.375 697.667,153.041 696.5,151.5C 694.51,148.591 692.677,145.591 691,142.5C 688.288,140.623 686.122,138.29 684.5,135.5 Z"/></g>
<g><path style="opacity:1" fill="#3d3d3b" d="M 694.5,181.5 C 694.005,183.482 693.505,185.482 693,187.5C 690.978,188.802 689.478,190.468 688.5,192.5C 688.152,176.473 682.319,162.807 671,151.5C 670.617,152.056 670.117,152.389 669.5,152.5C 669.5,151.167 669.5,149.833 669.5,148.5C 670.5,147.167 671.5,145.833 672.5,144.5C 673.323,141.023 673.823,137.356 674,133.5C 678.634,137.132 682.967,141.132 687,145.5C 691.78,151.06 694.947,157.393 696.5,164.5C 695.767,170.168 695.1,175.835 694.5,181.5 Z"/></g>
<g><path style="opacity:1" fill="#7c7c7c" d="M 1844.5,148.5 C 1846.92,148.192 1849.26,148.526 1851.5,149.5C 1851.38,150.107 1851.04,150.44 1850.5,150.5C 1848.5,149.833 1846.5,149.167 1844.5,148.5 Z"/></g>
<g><path style="opacity:1" fill="#fdc90e" d="M 665.5,158.5 C 661.947,162.576 658.614,166.909 655.5,171.5C 652.833,173.5 650.5,175.833 648.5,178.5C 646.251,179.08 644.585,180.413 643.5,182.5C 641.205,183.136 639.539,184.469 638.5,186.5C 635.296,187.383 632.629,189.05 630.5,191.5C 628.349,193.718 625.682,195.052 622.5,195.5C 620.11,195.913 617.777,196.579 615.5,197.5C 610.986,200.021 606.653,202.688 602.5,205.5C 601.07,206.537 599.403,207.204 597.5,207.5C 595.102,207.259 593.102,207.926 591.5,209.5C 587.837,209.952 584.17,210.452 580.5,211C 579.584,211.278 578.918,211.778 578.5,212.5C 577.167,212.5 575.833,212.5 574.5,212.5C 566.018,212.95 557.685,212.283 549.5,210.5C 547.447,197.515 548.447,184.849 552.5,172.5C 558.271,173.113 563.604,172.446 568.5,170.5C 571.829,170.785 574.829,170.118 577.5,168.5C 578.167,168.5 578.5,168.167 578.5,167.5C 581.112,166.629 583.779,165.963 586.5,165.5C 587.873,165.657 589.207,165.49 590.5,165C 594.323,163.465 597.656,161.299 600.5,158.5C 605.129,158.517 608.462,156.517 610.5,152.5C 615.477,150.177 619.477,146.844 622.5,142.5C 627.47,139.033 631.137,134.533 633.5,129C 646.749,130.304 658.249,135.471 668,144.5C 668.167,145.667 668.333,146.833 668.5,148C 667.055,151.385 666.055,154.885 665.5,158.5 Z"/></g>
<g><path style="opacity:1" fill="#f4f4f4" d="M 1905.5,152.5 C 1909.64,153.238 1913.31,155.071 1916.5,158C 1911.62,162.715 1906.95,167.548 1902.5,172.5C 1898.36,174.447 1894.03,174.947 1889.5,174C 1887.55,172.266 1886.55,170.099 1886.5,167.5C 1882.96,167.128 1880.79,165.128 1880,161.5C 1878.59,160.213 1877.09,159.046 1875.5,158C 1878.11,156.111 1880.94,154.611 1884,153.5C 1887.67,155.167 1891.33,156.833 1895,158.5C 1898.95,157.112 1902.45,155.112 1905.5,152.5 Z"/></g>
<g><path style="opacity:0.114" fill="#615221" d="M 544.5,153.5 C 544.44,152.957 544.107,152.624 543.5,152.5C 540.171,158.818 537.171,165.151 534.5,171.5C 535.427,164.035 538.094,157.369 542.5,151.5C 544.343,150.754 545.676,149.421 546.5,147.5C 547.449,149.933 546.782,151.933 544.5,153.5 Z"/></g>
<g><path style="opacity:1" fill="#ebebeb" d="M 1811.5,152.5 C 1814.17,152.933 1816.83,153.433 1819.5,154C 1814.66,158.188 1810.66,163.022 1807.5,168.5C 1806.68,165.893 1806.18,163.226 1806,160.5C 1804.17,161.667 1802.33,162.833 1800.5,164C 1799.36,164.749 1798.36,164.583 1797.5,163.5C 1798.98,161.517 1800.65,159.684 1802.5,158C 1801.17,157.333 1799.83,156.667 1798.5,156C 1802.81,154.27 1807.14,153.103 1811.5,152.5 Z"/></g>
<g><path style="opacity:1" fill="#927303" d="M 610.5,152.5 C 608.462,156.517 605.129,158.517 600.5,158.5C 603.494,156 606.827,154 610.5,152.5 Z"/></g>
<g><path style="opacity:1" fill="#1b1b1b" d="M 1835.5,230.5 C 1831.31,227.134 1827.81,223.134 1825,218.5C 1824.19,222.664 1824.69,226.664 1826.5,230.5C 1826.15,231.696 1825.65,231.696 1825,230.5C 1824.33,229.167 1823.67,227.833 1823,226.5C 1822.19,219.717 1820.86,213.051 1819,206.5C 1818.45,201.423 1818.45,196.423 1819,191.5C 1815.24,195.26 1812.07,198.427 1809.5,201C 1812.6,196.225 1816.1,191.725 1820,187.5C 1822.91,181.342 1826.08,175.342 1829.5,169.5C 1825.92,169.65 1822.92,171.484 1820.5,175C 1819.83,175.667 1819.17,175.667 1818.5,175C 1820.5,173 1822.5,171 1824.5,169C 1833.37,163.069 1842.04,156.903 1850.5,150.5C 1851.04,150.44 1851.38,150.107 1851.5,149.5C 1849.26,148.526 1846.92,148.192 1844.5,148.5C 1842.47,148.662 1840.47,148.495 1838.5,148C 1848.09,147.213 1857.43,145.546 1866.5,143C 1857.3,147.43 1848.97,153.097 1841.5,160C 1842.83,160 1844.17,160 1845.5,160C 1840.81,163.652 1839.81,167.985 1842.5,173C 1839.01,172.497 1837.18,170.33 1837,166.5C 1835.04,169.463 1832.71,172.129 1830,174.5C 1827.61,180.998 1829.11,186.498 1834.5,191C 1833.83,191.667 1833.17,191.667 1832.5,191C 1830.47,189.104 1828.8,186.937 1827.5,184.5C 1825.85,185.779 1824.69,187.445 1824,189.5C 1822.62,195.109 1822.28,200.775 1823,206.5C 1824.34,209.094 1826.51,210.594 1829.5,211C 1827.76,211.651 1826.1,211.485 1824.5,210.5C 1824.17,211 1823.83,211.5 1823.5,212C 1826.95,218.596 1830.95,224.762 1835.5,230.5 Z"/></g>
<g><path style="opacity:1" fill="#222221" d="M 688.5,192.5 C 687.559,194.05 686.893,195.716 686.5,197.5C 683.242,201.425 679.575,205.091 675.5,208.5C 678.687,193.442 676.187,179.442 668,166.5C 667.092,164.561 665.592,163.561 663.5,163.5C 663.715,165.179 663.048,166.179 661.5,166.5C 662.399,163.605 663.733,160.938 665.5,158.5C 666.833,156.5 668.167,154.5 669.5,152.5C 670.117,152.389 670.617,152.056 671,151.5C 682.319,162.807 688.152,176.473 688.5,192.5 Z"/></g>
<g><path style="opacity:1" fill="#131313" d="M 1899.5,162.5 C 1898.5,162.5 1897.5,162.5 1896.5,162.5C 1896.21,164.735 1896.54,166.735 1897.5,168.5C 1897.51,170.017 1898.18,171.184 1899.5,172C 1897.74,172.798 1896.07,172.631 1894.5,171.5C 1895.41,168.579 1895.74,165.579 1895.5,162.5C 1891.6,161.853 1892.93,161.853 1899.5,162.5 Z"/></g>
<g><path style="opacity:0.931" fill="#131413" d="M 1534.5,162.5 C 1547.74,161.598 1555.4,167.598 1557.5,180.5C 1555.4,193.532 1549.07,204.032 1538.5,212C 1530.83,213.322 1523.17,213.489 1515.5,212.5C 1523.85,204.984 1531.68,196.984 1539,188.5C 1540.25,185.923 1540.58,183.257 1540,180.5C 1538.56,178.845 1536.72,178.178 1534.5,178.5C 1534.5,173.167 1534.5,167.833 1534.5,162.5 Z"/></g>
<g><path style="opacity:0.913" fill="#131413" d="M 1529.5,163.5 C 1530.5,163.5 1531.5,163.5 1532.5,163.5C 1532.83,168.875 1532.49,174.208 1531.5,179.5C 1529.28,181.651 1527.95,184.318 1527.5,187.5C 1527.83,188.167 1528.17,188.833 1528.5,189.5C 1523.62,191.042 1518.62,191.709 1513.5,191.5C 1512.18,178.11 1517.52,168.777 1529.5,163.5 Z"/></g>
<g><path style="opacity:1" fill="#7b7b7b" d="M 1899.5,162.5 C 1897.93,164.114 1897.26,166.114 1897.5,168.5C 1897.26,166.114 1897.93,164.114 1899.5,162.5 Z"/></g>
<g><path style="opacity:1" fill="#8e6f02" d="M 600.5,158.5 C 597.656,161.299 594.323,163.465 590.5,165C 589.207,165.49 587.873,165.657 586.5,165.5C 590.912,162.798 595.579,160.464 600.5,158.5 Z"/></g>
<g><path style="opacity:1" fill="#1d1d1d" d="M 1867.5,163.5 C 1869.98,163.051 1871.98,163.717 1873.5,165.5C 1870.89,166.652 1868.23,166.818 1865.5,166C 1866.38,165.292 1867.05,164.458 1867.5,163.5 Z"/></g>
<g><path style="opacity:1" fill="#1a1a1a" d="M 1918.5,163.5 C 1921.35,163.03 1923.68,163.863 1925.5,166C 1922.77,166.818 1920.11,166.652 1917.5,165.5C 1917.86,164.817 1918.2,164.15 1918.5,163.5 Z"/></g>
<g><path style="opacity:0.247" fill="#5b4e1a" d="M 702.5,158.5 C 704.04,160.838 704.706,163.505 704.5,166.5C 703.232,164.095 702.565,161.428 702.5,158.5 Z"/></g>
<g><path style="opacity:1" fill="#efcc4e" d="M 696.5,151.5 C 697.667,153.041 699,154.375 700.5,155.5C 701.167,156.5 701.833,157.5 702.5,158.5C 702.565,161.428 703.232,164.095 704.5,166.5C 705.024,168.306 705.691,169.972 706.5,171.5C 706.833,171.5 707.167,171.5 707.5,171.5C 706.99,174.388 707.656,176.721 709.5,178.5C 709.5,185.5 709.5,192.5 709.5,199.5C 706.73,204.821 704.397,210.488 702.5,216.5C 701.392,219.794 699.392,222.461 696.5,224.5C 701.896,208.815 702.73,192.815 699,176.5C 698.051,178.093 696.885,179.426 695.5,180.5C 699.294,171.116 699.294,161.782 695.5,152.5C 695.624,151.893 695.957,151.56 696.5,151.5 Z"/></g>
<g><path style="opacity:0.075" fill="#4d4217" d="M 704.5,166.5 C 706.256,167.552 706.923,169.219 706.5,171.5C 705.691,169.972 705.024,168.306 704.5,166.5 Z"/></g>
<g><path style="opacity:0.894" fill="#131413" d="M 1502.5,168.5 C 1504.83,168.5 1507.17,168.5 1509.5,168.5C 1509.5,173.167 1509.5,177.833 1509.5,182.5C 1502.84,183.24 1496.18,183.906 1489.5,184.5C 1489.5,179.833 1489.5,175.167 1489.5,170.5C 1494.05,170.376 1498.38,169.709 1502.5,168.5 Z"/></g>
<g><path style="opacity:1" fill="#7d640b" d="M 665.5,158.5 C 663.733,160.938 662.399,163.605 661.5,166.5C 659.5,168.167 657.5,169.833 655.5,171.5C 658.614,166.909 661.947,162.576 665.5,158.5 Z"/></g>
<g><path style="opacity:1" fill="#070605" d="M 675.5,208.5 C 675.5,209.167 675.5,209.833 675.5,210.5C 673.5,210.5 672.5,211.5 672.5,213.5C 670.251,214.08 668.585,215.413 667.5,217.5C 664.527,218.81 662.193,220.81 660.5,223.5C 660.167,223.5 659.833,223.5 659.5,223.5C 656.883,224.786 654.55,226.453 652.5,228.5C 651.341,230.25 649.674,231.25 647.5,231.5C 642.68,233.074 638.347,235.407 634.5,238.5C 634.167,238.5 633.833,238.5 633.5,238.5C 631.033,238.755 629.033,239.755 627.5,241.5C 625.485,242.924 623.152,243.59 620.5,243.5C 618.199,244.06 615.866,244.56 613.5,245C 612.944,245.383 612.611,245.883 612.5,246.5C 611.833,246.5 611.167,246.5 610.5,246.5C 606.202,247.2 601.869,247.533 597.5,247.5C 582.306,241.639 571.306,231.306 564.5,216.5C 566.291,215.83 567.958,215.163 569.5,214.5C 571.781,214.923 573.448,214.256 574.5,212.5C 575.833,212.5 577.167,212.5 578.5,212.5C 583.124,212.237 587.458,211.237 591.5,209.5C 593.898,209.741 595.898,209.074 597.5,207.5C 599.403,207.204 601.07,206.537 602.5,205.5C 606.606,203.452 610.939,201.952 615.5,201C 618.02,199.303 620.353,197.47 622.5,195.5C 625.682,195.052 628.349,193.718 630.5,191.5C 633.704,190.617 636.371,188.95 638.5,186.5C 640.754,185.876 642.421,184.543 643.5,182.5C 645.749,181.92 647.415,180.587 648.5,178.5C 650.5,175.833 652.833,173.5 655.5,171.5C 657.5,169.833 659.5,168.167 661.5,166.5C 663.048,166.179 663.715,165.179 663.5,163.5C 665.592,163.561 667.092,164.561 668,166.5C 676.187,179.442 678.687,193.442 675.5,208.5 Z"/></g>
<g><path style="opacity:1" fill="#ad8f25" d="M 568.5,170.5 C 563.604,172.446 558.271,173.113 552.5,172.5C 551.508,172.672 550.842,172.338 550.5,171.5C 556.536,171.64 562.536,171.307 568.5,170.5 Z"/></g>
<g><path style="opacity:0.928" fill="#131413" d="M 1481.5,171.5 C 1483.83,171.5 1486.17,171.5 1488.5,171.5C 1488.5,190.833 1488.5,210.167 1488.5,229.5C 1483.83,229.5 1479.17,229.5 1474.5,229.5C 1474.5,210.5 1474.5,191.5 1474.5,172.5C 1477.06,172.802 1479.39,172.468 1481.5,171.5 Z"/></g>
<g><path style="opacity:1" fill="#fbd445" d="M 544.5,153.5 C 541.976,157.346 541.976,161.013 544.5,164.5C 545.089,168.086 547.089,170.42 550.5,171.5C 550.842,172.338 551.508,172.672 552.5,172.5C 548.447,184.849 547.447,197.515 549.5,210.5C 547.435,210.483 545.435,210.15 543.5,209.5C 542.448,209.649 541.448,209.483 540.5,209C 538.963,207.293 537.296,205.793 535.5,204.5C 535.162,202.146 534.662,199.813 534,197.5C 533.329,196.748 532.496,196.414 531.5,196.5C 531.5,190.5 531.5,184.5 531.5,178.5C 533.233,176.645 534.233,174.312 534.5,171.5C 537.171,165.151 540.171,158.818 543.5,152.5C 544.107,152.624 544.44,152.957 544.5,153.5 Z"/></g>
<g><path style="opacity:0.043" fill="#3a2f10" d="M 707.5,171.5 C 708.268,173.715 708.935,176.048 709.5,178.5C 707.656,176.721 706.99,174.388 707.5,171.5 Z"/></g>
<g><path style="opacity:1" fill="#f4df23" d="M 1900.5,189.5 C 1901.17,190.167 1901.83,190.833 1902.5,191.5C 1902.95,192.458 1903.62,193.292 1904.5,194C 1900.79,197.147 1896.46,198.313 1891.5,197.5C 1890.83,197.5 1890.17,197.5 1889.5,197.5C 1886.8,196.743 1884.3,195.409 1882,193.5C 1881.95,190.122 1882.45,186.789 1883.5,183.5C 1883.5,183.167 1883.5,182.833 1883.5,182.5C 1884.55,174.787 1882.39,173.454 1877,178.5C 1876.5,183.155 1876.33,187.821 1876.5,192.5C 1874.83,192.5 1873.17,192.5 1871.5,192.5C 1872.88,196.698 1873.54,201.031 1873.5,205.5C 1875.57,205.551 1877.4,204.885 1879,203.5C 1885.48,205.577 1891.98,207.577 1898.5,209.5C 1902.46,208.522 1905.79,206.522 1908.5,203.5C 1909.38,206.613 1910.38,209.613 1911.5,212.5C 1895.5,212.5 1879.5,212.5 1863.5,212.5C 1863.67,201.162 1863.5,189.828 1863,178.5C 1862.6,177.128 1862.1,175.795 1861.5,174.5C 1869.5,173.167 1877.5,173.167 1885.5,174.5C 1887.25,176.7 1889.59,177.867 1892.5,178C 1894.76,180.772 1896.26,183.938 1897,187.5C 1897.82,188.823 1898.98,189.489 1900.5,189.5 Z"/></g>
<g><path style="opacity:1" fill="#f5f5f5" d="M 1906.5,173.5 C 1909.5,173.5 1912.5,173.5 1915.5,173.5C 1915.38,178.054 1917.38,180.054 1921.5,179.5C 1918.34,178.676 1916.67,176.676 1916.5,173.5C 1921.18,173.334 1925.85,173.501 1930.5,174C 1929.51,186.754 1929.18,199.587 1929.5,212.5C 1925.78,212.95 1923.61,211.283 1923,207.5C 1922.51,209.134 1922.34,210.801 1922.5,212.5C 1918.42,212.74 1916.26,210.74 1916,206.5C 1915.55,213.206 1914.38,213.706 1912.5,208C 1914.99,206.417 1914.83,204.917 1912,203.5C 1911.35,201.765 1911.52,200.098 1912.5,198.5C 1911.76,197.713 1910.92,197.047 1910,196.5C 1909.54,193.422 1908.37,190.755 1906.5,188.5C 1907.33,185.217 1907.66,181.884 1907.5,178.5C 1906.02,178.762 1904.69,178.429 1903.5,177.5C 1904.52,176.148 1905.52,174.815 1906.5,173.5 Z"/></g>
<g><path style="opacity:0.09" fill="#4c4014" d="M 534.5,171.5 C 534.233,174.312 533.233,176.645 531.5,178.5C 531.767,175.688 532.767,173.355 534.5,171.5 Z"/></g>
<g><path style="opacity:0.917" fill="#131413" d="M 1452.5,175.5 C 1453.5,193.326 1453.83,211.326 1453.5,229.5C 1449.5,229.5 1445.5,229.5 1441.5,229.5C 1441.5,212.167 1441.5,194.833 1441.5,177.5C 1445.36,177.192 1449.03,176.525 1452.5,175.5 Z"/></g>
<g><path style="opacity:1" fill="#eaeaea" d="M 1902.5,191.5 C 1901.83,190.833 1901.17,190.167 1900.5,189.5C 1899.55,188.007 1898.55,186.507 1897.5,185C 1897.61,183.278 1898.11,183.112 1899,184.5C 1898.45,181.907 1896.95,179.74 1894.5,178C 1901.07,177.068 1904.4,179.901 1904.5,186.5C 1904.44,188.64 1903.78,190.306 1902.5,191.5 Z"/></g>
<g><path style="opacity:0.871" fill="#131413" d="M 1431.5,178.5 C 1434.17,178.5 1436.83,178.5 1439.5,178.5C 1439.5,182.5 1439.5,186.5 1439.5,190.5C 1434.17,190.833 1428.83,191.167 1423.5,191.5C 1423.5,193.833 1423.5,196.167 1423.5,198.5C 1426.91,198.751 1430.24,198.417 1433.5,197.5C 1434.49,201.783 1434.83,206.116 1434.5,210.5C 1430.83,210.5 1427.17,210.5 1423.5,210.5C 1423.5,212.833 1423.5,215.167 1423.5,217.5C 1428.56,217.781 1433.56,217.448 1438.5,216.5C 1439.49,220.783 1439.83,225.116 1439.5,229.5C 1430.5,229.5 1421.5,229.5 1412.5,229.5C 1412.5,213.5 1412.5,197.5 1412.5,181.5C 1419.04,180.949 1425.37,179.949 1431.5,178.5 Z"/></g>
<g><path style="opacity:1" fill="#e5e5e5" d="M 1883.5,182.5 C 1883.5,182.833 1883.5,183.167 1883.5,183.5C 1881.67,186.135 1880.51,189.135 1880,192.5C 1879.83,191.333 1879.67,190.167 1879.5,189C 1879.99,185.96 1880.15,182.793 1880,179.5C 1882.31,178.61 1883.47,179.61 1883.5,182.5 Z"/></g>
<g><path style="opacity:1" fill="#514004" d="M 648.5,178.5 C 647.415,180.587 645.749,181.92 643.5,182.5C 644.585,180.413 646.251,179.08 648.5,178.5 Z"/></g>
<g><path style="opacity:0.929" fill="#131413" d="M 1403.5,182.5 C 1405.5,182.5 1407.5,182.5 1409.5,182.5C 1409.5,186.167 1409.5,189.833 1409.5,193.5C 1406.79,193.575 1404.13,193.908 1401.5,194.5C 1401.5,206.167 1401.5,217.833 1401.5,229.5C 1398.17,229.5 1394.83,229.5 1391.5,229.5C 1391.5,218.167 1391.5,206.833 1391.5,195.5C 1388.79,195.575 1386.13,195.908 1383.5,196.5C 1383.5,192.833 1383.5,189.167 1383.5,185.5C 1390.35,184.855 1397.02,183.855 1403.5,182.5 Z"/></g>
<g><path style="opacity:1" fill="#675101" d="M 643.5,182.5 C 642.421,184.543 640.754,185.876 638.5,186.5C 639.539,184.469 641.205,183.136 643.5,182.5 Z"/></g>
<g><path style="opacity:1" fill="#6f5701" d="M 638.5,186.5 C 636.371,188.95 633.704,190.617 630.5,191.5C 632.629,189.05 635.296,187.383 638.5,186.5 Z"/></g>
<g><path style="opacity:1" fill="#464646" d="M 1920.5,185.5 C 1921.56,186.6 1922.39,187.934 1923,189.5C 1924.21,190.071 1925.37,190.738 1926.5,191.5C 1922.42,192.093 1920.42,190.093 1920.5,185.5 Z"/></g>
<g><path style="opacity:0.868" fill="#131413" d="M 1501.5,191.5 C 1503.44,196.056 1504.11,201.056 1503.5,206.5C 1498.83,206.5 1494.17,206.5 1489.5,206.5C 1489.33,202.154 1489.5,197.821 1490,193.5C 1493.94,192.862 1497.77,192.196 1501.5,191.5 Z"/></g>
<g><path style="opacity:1" fill="#b1b1b1" d="M 1905.5,192.5 C 1907.27,194.388 1908.6,196.721 1909.5,199.5C 1909.17,199.833 1908.83,200.167 1908.5,200.5C 1906.93,198.029 1905.93,195.363 1905.5,192.5 Z"/></g>
<g><path style="opacity:1" fill="#c49a00" d="M 622.5,195.5 C 620.353,197.47 618.02,199.303 615.5,201C 610.939,201.952 606.606,203.452 602.5,205.5C 606.653,202.688 610.986,200.021 615.5,197.5C 617.777,196.579 620.11,195.913 622.5,195.5 Z"/></g>
<g><path style="opacity:1" fill="#e4e4e4" d="M 1876.5,197.5 C 1878.79,196.072 1880.79,196.572 1882.5,199C 1881.69,200.706 1880.36,201.539 1878.5,201.5C 1878.33,200.178 1878.66,199.011 1879.5,198C 1878.55,197.517 1877.55,197.351 1876.5,197.5 Z"/></g>
<g><path style="opacity:1" fill="#1d1d1d" d="M 1917.5,192.5 C 1918.68,195.009 1920.68,196.343 1923.5,196.5C 1923.43,199.766 1925.1,201.266 1928.5,201C 1925.84,202.201 1923,203.035 1920,203.5C 1915.9,202.755 1914.24,200.421 1915,196.5C 1916.16,199.651 1918.33,201.151 1921.5,201C 1919.89,198.246 1918.56,195.413 1917.5,192.5 Z"/></g>
<g><path style="opacity:1" fill="#e5e5e5" d="M 1883.5,197.5 C 1884.65,197.791 1885.32,198.624 1885.5,200C 1885.17,200.833 1884.83,201.667 1884.5,202.5C 1883.55,200.955 1883.21,199.288 1883.5,197.5 Z"/></g>
<g><path style="opacity:1" fill="#c8c8c8" d="M 1889.5,197.5 C 1890.17,197.5 1890.83,197.5 1891.5,197.5C 1891.7,199.989 1891.2,202.323 1890,204.5C 1889.25,203.874 1888.42,203.374 1887.5,203C 1888.24,201.185 1888.91,199.352 1889.5,197.5 Z"/></g>
<g><path style="opacity:1" fill="#cecece" d="M 1901.5,197.5 C 1904.75,198.673 1905.92,201.006 1905,204.5C 1904.59,204.957 1904.09,205.291 1903.5,205.5C 1902.62,202.87 1901.95,200.203 1901.5,197.5 Z"/></g>
<g><path style="opacity:1" fill="#181818" d="M 1963.5,151.5 C 1962.19,152.145 1961.19,153.145 1960.5,154.5C 1968.86,159.358 1975.36,166.025 1980,174.5C 1983.91,179.083 1988.41,182.917 1993.5,186C 1991.17,188.735 1988.17,190.235 1984.5,190.5C 1986.52,196.427 1988.35,202.427 1990,208.5C 1991.38,210.213 1993.04,211.547 1995,212.5C 1995.54,214.567 1995.04,216.401 1993.5,218C 1993.83,218.333 1994.17,218.667 1994.5,219C 1991.66,220.352 1988.82,220.852 1986,220.5C 1983.4,219.307 1982.4,217.307 1983,214.5C 1983.62,216.116 1984.62,217.449 1986,218.5C 1985.74,217.049 1985.9,215.716 1986.5,214.5C 1992.51,216.021 1993.35,215.021 1989,211.5C 1986.49,206.436 1984.82,201.103 1984,195.5C 1983.62,194.058 1982.79,193.058 1981.5,192.5C 1982.64,194.745 1983.14,197.078 1983,199.5C 1981.49,194.993 1978.83,191.327 1975,188.5C 1974.67,192.833 1974.33,197.167 1974,201.5C 1973.24,203.315 1972.41,204.981 1971.5,206.5C 1971.44,205.957 1971.11,205.624 1970.5,205.5C 1965.99,207.078 1961.32,208.078 1956.5,208.5C 1954.43,208.824 1954.1,209.658 1955.5,211C 1953.91,211.862 1952.25,212.529 1950.5,213C 1951.34,214.011 1951.67,215.178 1951.5,216.5C 1954.23,215.393 1957.06,214.393 1960,213.5C 1963.16,213.767 1964.16,215.433 1963,218.5C 1958.04,223.825 1951.88,226.659 1944.5,227C 1945.55,228.385 1946.88,229.385 1948.5,230C 1942,237.039 1939.34,245.205 1940.5,254.5C 1947.68,252.653 1952.68,248.32 1955.5,241.5C 1956.19,242.025 1956.69,242.692 1957,243.5C 1958.17,241.833 1959.33,240.167 1960.5,238.5C 1962.03,239.861 1963.7,241.028 1965.5,242C 1961.54,241.791 1959.87,243.625 1960.5,247.5C 1958.61,247.703 1957.11,247.037 1956,245.5C 1951.45,252.943 1944.95,256.277 1936.5,255.5C 1938.15,249.618 1939.32,243.618 1940,237.5C 1941.17,235.167 1942.33,232.833 1943.5,230.5C 1940.48,228.893 1938.81,226.393 1938.5,223C 1943.86,223.926 1949.19,223.593 1954.5,222C 1956.59,220.959 1958.25,219.459 1959.5,217.5C 1959.17,217.167 1958.83,216.833 1958.5,216.5C 1954.43,219.718 1950.09,220.218 1945.5,218C 1948.29,215.245 1947.96,212.912 1944.5,211C 1945.38,208.843 1947.05,208.01 1949.5,208.5C 1949.5,207.167 1949.5,205.833 1949.5,204.5C 1954.6,205.336 1958.94,204.002 1962.5,200.5C 1962,200.167 1961.5,199.833 1961,199.5C 1954.68,202.712 1948.18,203.212 1941.5,201C 1942.91,200.632 1943.91,199.799 1944.5,198.5C 1941.61,197.56 1939.28,195.893 1937.5,193.5C 1939.97,192.877 1942.3,192.043 1944.5,191C 1942.56,190.092 1941.56,188.592 1941.5,186.5C 1945.51,187.314 1948.18,185.814 1949.5,182C 1949.17,181.5 1948.83,181 1948.5,180.5C 1945.06,182.078 1941.9,181.745 1939,179.5C 1938.83,178.667 1938.67,177.833 1938.5,177C 1944.04,171.722 1943.7,166.722 1937.5,162C 1931.91,159.401 1926.58,156.401 1921.5,153C 1915.15,148.484 1913.31,142.651 1916,135.5C 1919.67,132.167 1923.33,128.833 1927,125.5C 1929.94,127.328 1931.11,129.995 1930.5,133.5C 1939.82,133.31 1941.82,129.477 1936.5,122C 1943.13,122.784 1949.8,123.284 1956.5,123.5C 1957.52,124.002 1957.69,124.668 1957,125.5C 1952.96,130.367 1948.79,135.033 1944.5,139.5C 1952.12,141.572 1957.95,139.239 1962,132.5C 1965.99,138.584 1966.49,144.917 1963.5,151.5 Z"/></g>
<g><path style="opacity:1" fill="#f3f3f3" d="M 1981.5,192.5 C 1975.47,186.14 1969.47,179.807 1963.5,173.5C 1965.07,180.515 1962.74,185.681 1956.5,189C 1961.99,187.838 1965.15,184.338 1966,178.5C 1970.6,185.845 1972.27,193.845 1971,202.5C 1969.05,205.031 1966.55,206.197 1963.5,206C 1965.44,203.847 1965.94,201.347 1965,198.5C 1964.11,197.919 1963.11,197.585 1962,197.5C 1957.75,199.524 1953.25,200.857 1948.5,201.5C 1948.42,200.07 1948.75,198.736 1949.5,197.5C 1947.83,196.833 1946.17,196.167 1944.5,195.5C 1946.87,194.653 1948.87,193.319 1950.5,191.5C 1949.83,190.833 1949.17,190.167 1948.5,189.5C 1952.17,185.787 1953.17,181.453 1951.5,176.5C 1948.04,178.391 1944.37,178.891 1940.5,178C 1947.34,171.687 1947.01,165.687 1939.5,160C 1930.93,156.646 1923.77,151.479 1918,144.5C 1916.66,137.296 1919.5,132.296 1926.5,129.5C 1927.22,131.164 1926.89,132.831 1925.5,134.5C 1931.89,136.65 1937.39,135.316 1942,130.5C 1942.28,127.903 1942.45,125.57 1942.5,123.5C 1943.93,124.936 1945.1,126.602 1946,128.5C 1954.8,122.97 1955.63,124.136 1948.5,132C 1945.28,134.777 1941.62,136.777 1937.5,138C 1946.16,144.149 1954.66,143.982 1963,137.5C 1965.04,141.334 1964.7,145.001 1962,148.5C 1959.93,150.452 1957.76,152.285 1955.5,154C 1965.38,160.877 1973.54,169.377 1980,179.5C 1982.54,182.372 1985.37,184.872 1988.5,187C 1985.17,187.333 1981.83,187.667 1978.5,188C 1980.14,189.129 1981.14,190.629 1981.5,192.5 Z"/></g>
<g><path style="opacity:1" fill="#161616" d="M 1941.5,146.5 C 1945.83,147.167 1950.17,147.833 1954.5,148.5C 1949.92,149.277 1945.25,149.777 1940.5,150C 1949.32,156.911 1958.32,163.577 1967.5,170C 1965.74,170.14 1964.08,169.64 1962.5,168.5C 1962.17,168.833 1961.83,169.167 1961.5,169.5C 1962.63,170.622 1963.3,171.956 1963.5,173.5C 1960.78,171.098 1958.28,168.432 1956,165.5C 1951.67,173.82 1950,173.487 1951,164.5C 1949.23,162.404 1947.9,160.071 1947,157.5C 1939.08,152.458 1931.25,147.291 1923.5,142C 1929.17,144.38 1935.17,145.88 1941.5,146.5 Z"/></g>
<g><path style="opacity:1" fill="#8f8f8f" d="M 1941.5,146.5 C 1946.84,146.334 1952.18,146.501 1957.5,147C 1956.47,147.513 1955.47,148.013 1954.5,148.5C 1950.17,147.833 1945.83,147.167 1941.5,146.5 Z"/></g>
<g><path style="opacity:1" fill="#e7e7e7" d="M 1893.5,199.5 C 1894.65,199.791 1895.32,200.624 1895.5,202C 1895.61,203.662 1894.95,204.829 1893.5,205.5C 1892.77,203.599 1892.77,201.599 1893.5,199.5 Z"/></g>
<g><path style="opacity:1" fill="#d0d0d0" d="M 1897.5,199.5 C 1899.72,199.559 1900.72,200.725 1900.5,203C 1900.51,204.812 1899.84,206.312 1898.5,207.5C 1897.52,204.914 1897.19,202.247 1897.5,199.5 Z"/></g>
<g><path style="opacity:1" fill="#8e7724" d="M 686.5,197.5 C 686.167,198.167 685.833,198.833 685.5,199.5C 682.899,203.771 679.566,207.437 675.5,210.5C 675.5,209.833 675.5,209.167 675.5,208.5C 679.575,205.091 683.242,201.425 686.5,197.5 Z"/></g>
<g><path style="opacity:1" fill="#fdce25" d="M 618.5,245.5 C 619.5,245.167 620.167,244.5 620.5,243.5C 623.152,243.59 625.485,242.924 627.5,241.5C 629.967,241.245 631.967,240.245 633.5,238.5C 633.833,238.5 634.167,238.5 634.5,238.5C 637.934,237.553 641.267,236.386 644.5,235C 645.71,233.961 646.71,232.794 647.5,231.5C 649.674,231.25 651.341,230.25 652.5,228.5C 655.674,227.99 658.008,226.323 659.5,223.5C 659.833,223.5 660.167,223.5 660.5,223.5C 663.447,222.219 665.781,220.219 667.5,217.5C 669.749,216.92 671.415,215.587 672.5,213.5C 672.5,211.5 673.5,210.5 675.5,210.5C 679.566,207.437 682.899,203.771 685.5,199.5C 687.017,199.489 688.184,198.823 689,197.5C 691.858,190.594 693.025,190.927 692.5,198.5C 688.717,232.125 670.384,253.292 637.5,262C 617.55,266.34 598.883,263.34 581.5,253C 589.188,252.57 596.854,251.903 604.5,251C 609.144,248.855 613.81,247.021 618.5,245.5 Z"/></g>
<g><path style="opacity:1" fill="#121212" d="M 1977.5,205.5 C 1981.07,205.408 1982.24,207.074 1981,210.5C 1980.58,209.328 1979.91,208.328 1979,207.5C 1980.73,216.767 1979.06,225.434 1974,233.5C 1973.5,236.817 1973.33,240.15 1973.5,243.5C 1971.14,243.663 1968.81,243.497 1966.5,243C 1969.41,236.323 1972.25,229.49 1975,222.5C 1975.48,217.7 1975.15,213.034 1974,208.5C 1975.15,207.364 1976.31,206.364 1977.5,205.5 Z"/></g>
<g><path style="opacity:0.817" fill="#6d6341" d="M 531.5,196.5 C 532.496,196.414 533.329,196.748 534,197.5C 534.662,199.813 535.162,202.146 535.5,204.5C 534.844,205.622 534.511,206.955 534.5,208.5C 534.974,213.696 535.974,218.696 537.5,223.5C 534.79,220.196 532.79,216.529 531.5,212.5C 531.5,207.167 531.5,201.833 531.5,196.5 Z"/></g>
<g><path style="opacity:1" fill="#53524f" d="M 535.5,204.5 C 537.296,205.793 538.963,207.293 540.5,209C 541.448,209.483 542.448,209.649 543.5,209.5C 543.833,210.167 544.167,210.833 544.5,211.5C 543.5,211.5 542.5,211.5 541.5,211.5C 542.287,216.696 543.787,221.696 546,226.5C 549.938,233.391 554.105,240.058 558.5,246.5C 555.616,245.62 552.95,244.287 550.5,242.5C 547.101,239.427 543.768,236.427 540.5,233.5C 540.72,229.696 539.72,226.363 537.5,223.5C 535.974,218.696 534.974,213.696 534.5,208.5C 534.511,206.955 534.844,205.622 535.5,204.5 Z"/></g>
<g><path style="opacity:1" fill="#675101" d="M 597.5,207.5 C 595.898,209.074 593.898,209.741 591.5,209.5C 593.102,207.926 595.102,207.259 597.5,207.5 Z"/></g>
<g><path style="opacity:1" fill="#ab8f2a" d="M 543.5,209.5 C 545.435,210.15 547.435,210.483 549.5,210.5C 557.685,212.283 566.018,212.95 574.5,212.5C 573.448,214.256 571.781,214.923 569.5,214.5C 563.833,214.5 558.167,214.5 552.5,214.5C 550.403,212.518 547.736,211.518 544.5,211.5C 544.167,210.833 543.833,210.167 543.5,209.5 Z"/></g>
<g><path style="opacity:1" fill="#7f6300" d="M 591.5,209.5 C 587.458,211.237 583.124,212.237 578.5,212.5C 578.918,211.778 579.584,211.278 580.5,211C 584.17,210.452 587.837,209.952 591.5,209.5 Z"/></g>
<g><path style="opacity:1" fill="#414141" d="M 544.5,211.5 C 547.736,211.518 550.403,212.518 552.5,214.5C 551.903,214.735 551.57,215.235 551.5,216C 555.995,227.978 562.995,238.312 572.5,247C 574.611,247.845 576.611,248.678 578.5,249.5C 572.354,249.339 566.354,248.339 560.5,246.5C 559.833,246.5 559.167,246.5 558.5,246.5C 554.105,240.058 549.938,233.391 546,226.5C 543.787,221.696 542.287,216.696 541.5,211.5C 542.5,211.5 543.5,211.5 544.5,211.5 Z"/></g>
<g><path style="opacity:0.906" fill="#131413" d="M 1536.5,213.5 C 1543.5,213.5 1550.5,213.5 1557.5,213.5C 1557.5,218.833 1557.5,224.167 1557.5,229.5C 1542.5,229.5 1527.5,229.5 1512.5,229.5C 1512.5,224.5 1512.5,219.5 1512.5,214.5C 1520.68,214.826 1528.68,214.492 1536.5,213.5 Z"/></g>
<g><path style="opacity:1" fill="#d2cda9" d="M 1863.5,212.5 C 1879.5,212.5 1895.5,212.5 1911.5,212.5C 1911.5,213.167 1911.5,213.833 1911.5,214.5C 1900.32,214.172 1889.32,214.505 1878.5,215.5C 1877.61,214.89 1876.61,214.557 1875.5,214.5C 1871.5,214.5 1867.5,214.5 1863.5,214.5C 1863.5,213.833 1863.5,213.167 1863.5,212.5 Z"/></g>
<g><path style="opacity:0.88" fill="#131413" d="M 1503.5,214.5 C 1505.5,214.5 1507.5,214.5 1509.5,214.5C 1509.5,219.5 1509.5,224.5 1509.5,229.5C 1502.83,229.5 1496.17,229.5 1489.5,229.5C 1489.5,224.833 1489.5,220.167 1489.5,215.5C 1494.36,215.819 1499.03,215.486 1503.5,214.5 Z"/></g>
<g><path style="opacity:1" fill="#e4dca6" d="M 1863.5,214.5 C 1863.33,223.173 1863.5,231.84 1864,240.5C 1864.79,241.745 1865.29,243.078 1865.5,244.5C 1863.59,243.025 1862.42,241.025 1862,238.5C 1861.83,234.5 1861.67,230.5 1861.5,226.5C 1861.51,222.107 1862.18,218.107 1863.5,214.5 Z"/></g>
<g><path style="opacity:1" fill="#f4df25" d="M 1863.5,214.5 C 1867.5,214.5 1871.5,214.5 1875.5,214.5C 1876.5,216.167 1877.83,217.5 1879.5,218.5C 1879.08,220.747 1878.42,222.914 1877.5,225C 1877.53,226.07 1877.86,226.903 1878.5,227.5C 1879.5,227.5 1880.5,227.5 1881.5,227.5C 1881.29,229.179 1881.95,230.179 1883.5,230.5C 1883.5,230.833 1883.5,231.167 1883.5,231.5C 1881.41,231.682 1879.41,231.348 1877.5,230.5C 1876.48,230.855 1875.81,231.522 1875.5,232.5C 1871.23,233.938 1870.56,236.272 1873.5,239.5C 1876.05,238.339 1877.38,236.339 1877.5,233.5C 1880,234.417 1882.34,234.417 1884.5,233.5C 1885.36,234.688 1886.36,235.855 1887.5,237C 1884.83,237.333 1882.17,237.667 1879.5,238C 1877.39,239.264 1876.39,241.097 1876.5,243.5C 1875.88,243.389 1875.38,243.056 1875,242.5C 1873.43,243.984 1872.09,245.651 1871,247.5C 1870.67,246.5 1870.33,245.5 1870,244.5C 1868.35,247.106 1866.85,247.106 1865.5,244.5C 1865.29,243.078 1864.79,241.745 1864,240.5C 1863.5,231.84 1863.33,223.173 1863.5,214.5 Z"/></g>
<g><path style="opacity:1" fill="#eed91f" d="M 1878.5,215.5 C 1889.32,214.505 1900.32,214.172 1911.5,214.5C 1917.17,214.5 1922.83,214.5 1928.5,214.5C 1928.63,220.175 1928.97,225.842 1929.5,231.5C 1930.22,237.682 1928.22,242.682 1923.5,246.5C 1922.83,245.5 1922.17,244.5 1921.5,243.5C 1920.4,245.389 1919.06,247.055 1917.5,248.5C 1917.17,248.333 1916.83,248.167 1916.5,248C 1918.01,247.163 1918.51,245.996 1918,244.5C 1916.43,245.984 1915.09,247.651 1914,249.5C 1914.05,246.655 1914.55,243.822 1915.5,241C 1915.61,239.301 1914.95,238.134 1913.5,237.5C 1911.91,230.063 1912.75,229.73 1916,236.5C 1919.01,241.515 1922.17,241.682 1925.5,237C 1924.62,236.292 1923.95,235.458 1923.5,234.5C 1921.12,230.11 1917.45,227.777 1912.5,227.5C 1911.39,227.557 1910.39,227.89 1909.5,228.5C 1904.18,228.523 1898.85,228.19 1893.5,227.5C 1894.96,223.205 1893.63,219.705 1889.5,217C 1885.87,215.952 1882.2,215.452 1878.5,215.5 Z"/></g>
<g><path style="opacity:1" fill="#393939" d="M 1971.5,206.5 C 1971.77,211.913 1971.27,217.246 1970,222.5C 1968.98,223.706 1968.48,223.373 1968.5,221.5C 1969.4,219.199 1969.56,216.866 1969,214.5C 1967.95,216.618 1966.45,218.284 1964.5,219.5C 1967.11,215.287 1969.44,210.953 1971.5,206.5 Z"/></g>
<g><path style="opacity:1" fill="#282828" d="M 552.5,214.5 C 558.167,214.5 563.833,214.5 569.5,214.5C 567.958,215.163 566.291,215.83 564.5,216.5C 571.306,231.306 582.306,241.639 597.5,247.5C 596.391,248.29 595.058,248.79 593.5,249C 588.511,249.499 583.511,249.666 578.5,249.5C 576.611,248.678 574.611,247.845 572.5,247C 562.995,238.312 555.995,227.978 551.5,216C 551.57,215.235 551.903,214.735 552.5,214.5 Z"/></g>
<g><path style="opacity:0.899" fill="#131413" d="M 1470.5,215.5 C 1472.44,219.715 1473.1,224.381 1472.5,229.5C 1466.83,229.5 1461.17,229.5 1455.5,229.5C 1455.5,225.167 1455.5,220.833 1455.5,216.5C 1460.69,216.821 1465.69,216.487 1470.5,215.5 Z"/></g>
<g><path style="opacity:1" fill="#836b14" d="M 672.5,213.5 C 671.415,215.587 669.749,216.92 667.5,217.5C 668.585,215.413 670.251,214.08 672.5,213.5 Z"/></g>
<g><path style="opacity:1" fill="#1d1909" d="M 1875.5,214.5 C 1876.61,214.557 1877.61,214.89 1878.5,215.5C 1882.2,215.452 1885.87,215.952 1889.5,217C 1893.63,219.705 1894.96,223.205 1893.5,227.5C 1891.88,225.879 1890.72,223.879 1890,221.5C 1888.51,219.84 1886.68,218.84 1884.5,218.5C 1882.95,217.28 1881.28,217.28 1879.5,218.5C 1877.83,217.5 1876.5,216.167 1875.5,214.5 Z"/></g>
<g><path style="opacity:1" fill="#705b0f" d="M 667.5,217.5 C 665.781,220.219 663.447,222.219 660.5,223.5C 662.193,220.81 664.527,218.81 667.5,217.5 Z"/></g>
<g><path style="opacity:1" fill="#f5f4f0" d="M 1884.5,218.5 C 1886.68,218.84 1888.51,219.84 1890,221.5C 1890.72,223.879 1891.88,225.879 1893.5,227.5C 1898.85,228.19 1904.18,228.523 1909.5,228.5C 1909.5,232.165 1910.84,235.165 1913.5,237.5C 1913.63,238.376 1913.3,239.043 1912.5,239.5C 1909.64,238.804 1907.14,237.471 1905,235.5C 1904.25,236.126 1903.42,236.626 1902.5,237C 1895.16,237.556 1887.82,238.223 1880.5,239C 1879,239.838 1878.67,240.671 1879.5,241.5C 1879.5,242.167 1879.5,242.833 1879.5,243.5C 1878.5,242.167 1877.5,242.167 1876.5,243.5C 1876.39,241.097 1877.39,239.264 1879.5,238C 1882.17,237.667 1884.83,237.333 1887.5,237C 1886.36,235.855 1885.36,234.688 1884.5,233.5C 1883.66,233.158 1883.33,232.492 1883.5,231.5C 1883.5,231.167 1883.5,230.833 1883.5,230.5C 1882.36,227.838 1882.19,225.171 1883,222.5C 1882.08,224.376 1880.58,225.376 1878.5,225.5C 1879.13,222.746 1880.8,220.912 1883.5,220C 1882.29,218.893 1882.62,218.393 1884.5,218.5 Z"/></g>
<g><path style="opacity:1" fill="#776f49" d="M 1884.5,218.5 C 1882.62,218.393 1882.29,218.893 1883.5,220C 1880.8,220.912 1879.13,222.746 1878.5,225.5C 1878.5,226.167 1878.5,226.833 1878.5,227.5C 1877.86,226.903 1877.53,226.07 1877.5,225C 1878.42,222.914 1879.08,220.747 1879.5,218.5C 1881.28,217.28 1882.95,217.28 1884.5,218.5 Z"/></g>
<g><path style="opacity:1" fill="#6f6f6f" d="M 1964.5,219.5 C 1963.97,221.544 1962.8,223.211 1961,224.5C 1961.08,222.228 1962.24,220.562 1964.5,219.5 Z"/></g>
<g><path style="opacity:0.937" fill="#03a8f4" d="M 2313.5,221.5 C 2329.97,220.792 2335.47,228.126 2330,243.5C 2323.8,249.104 2316.97,249.937 2309.5,246C 2303.92,240.146 2303.09,233.646 2307,226.5C 2308.97,224.45 2311.13,222.783 2313.5,221.5 Z"/></g>
<g><path style="opacity:0.502" fill="#615736" d="M 709.5,199.5 C 710.288,208.378 708.955,216.711 705.5,224.5C 702.899,228.045 700.565,231.712 698.5,235.5C 698.523,233.073 699.023,230.74 700,228.5C 703.109,223.956 704.775,218.956 705,213.5C 704.623,214.942 703.79,215.942 702.5,216.5C 704.397,210.488 706.73,204.821 709.5,199.5 Z"/></g>
<g><path style="opacity:1" fill="#fdf6f7" d="M 1101.5,224.5 C 1108.98,224.139 1116.31,224.972 1123.5,227C 1129.73,229.393 1133.07,233.893 1133.5,240.5C 1129.77,240.823 1126.11,240.489 1122.5,239.5C 1121.97,237.259 1120.63,235.759 1118.5,235C 1100.34,229.467 1092.5,235.967 1095,254.5C 1095.88,257.102 1097.38,259.269 1099.5,261C 1105.05,262.57 1110.72,262.903 1116.5,262C 1120.1,261.236 1122.1,259.07 1122.5,255.5C 1126.17,255.5 1129.83,255.5 1133.5,255.5C 1133.15,263.382 1129.15,268.215 1121.5,270C 1111.59,272.473 1101.92,271.806 1092.5,268C 1082.4,257.344 1080.9,245.511 1088,232.5C 1091.89,228.646 1096.39,225.979 1101.5,224.5 Z"/></g>
<g><path style="opacity:1" fill="#6a5508" d="M 659.5,223.5 C 658.008,226.323 655.674,227.99 652.5,228.5C 654.55,226.453 656.883,224.786 659.5,223.5 Z"/></g>
<g><path style="opacity:1" fill="#211f15" d="M 1883.5,230.5 C 1881.95,230.179 1881.29,229.179 1881.5,227.5C 1880.5,227.5 1879.5,227.5 1878.5,227.5C 1878.5,226.833 1878.5,226.167 1878.5,225.5C 1880.58,225.376 1882.08,224.376 1883,222.5C 1882.19,225.171 1882.36,227.838 1883.5,230.5 Z"/></g>
<g><path style="opacity:1" fill="#53514c" d="M 698.5,235.5 C 697.667,238.357 696.334,241.023 694.5,243.5C 683.133,255.214 670.133,264.547 655.5,271.5C 652.294,272.808 648.96,273.475 645.5,273.5C 645.5,274.833 645.5,276.167 645.5,277.5C 639.824,277.334 634.157,277.501 628.5,278C 627.944,278.383 627.611,278.883 627.5,279.5C 619.167,279.5 610.833,279.5 602.5,279.5C 598.241,277.27 593.575,275.603 588.5,274.5C 597.167,273.833 605.833,273.167 614.5,272.5C 619.816,272.451 624.816,271.451 629.5,269.5C 635.87,266.655 642.537,264.488 649.5,263C 656.058,258.89 662.725,255.057 669.5,251.5C 680.454,244.88 689.454,236.213 696.5,225.5C 696.5,225.167 696.5,224.833 696.5,224.5C 699.392,222.461 701.392,219.794 702.5,216.5C 703.79,215.942 704.623,214.942 705,213.5C 704.775,218.956 703.109,223.956 700,228.5C 699.023,230.74 698.523,233.073 698.5,235.5 Z"/></g>
<g><path style="opacity:1" fill="#b9b5a2" d="M 1912.5,227.5 C 1917.45,227.777 1921.12,230.11 1923.5,234.5C 1921.96,235.301 1920.29,235.634 1918.5,235.5C 1918.66,234.127 1918.49,232.793 1918,231.5C 1915.54,230.968 1913.7,229.634 1912.5,227.5 Z"/></g>
<g><path style="opacity:0.247" fill="#453c1e" d="M 531.5,212.5 C 532.79,216.529 534.79,220.196 537.5,223.5C 539.72,226.363 540.72,229.696 540.5,233.5C 543.686,238.392 546.686,243.392 549.5,248.5C 539.887,238.338 533.887,226.338 531.5,212.5 Z"/></g>
<g><path style="opacity:1" fill="#7e7a68" d="M 1883.5,231.5 C 1883.33,232.492 1883.66,233.158 1884.5,233.5C 1882.34,234.417 1880,234.417 1877.5,233.5C 1876.51,233.672 1875.84,233.338 1875.5,232.5C 1875.81,231.522 1876.48,230.855 1877.5,230.5C 1879.41,231.348 1881.41,231.682 1883.5,231.5 Z"/></g>
<g><path style="opacity:1" fill="#16140d" d="M 1912.5,227.5 C 1913.7,229.634 1915.54,230.968 1918,231.5C 1918.49,232.793 1918.66,234.127 1918.5,235.5C 1920.29,235.634 1921.96,235.301 1923.5,234.5C 1923.95,235.458 1924.62,236.292 1925.5,237C 1922.17,241.682 1919.01,241.515 1916,236.5C 1912.75,229.73 1911.91,230.063 1913.5,237.5C 1910.84,235.165 1909.5,232.165 1909.5,228.5C 1910.39,227.89 1911.39,227.557 1912.5,227.5 Z"/></g>
<g><path style="opacity:1" fill="#1b1912" d="M 1875.5,232.5 C 1875.84,233.338 1876.51,233.672 1877.5,233.5C 1877.38,236.339 1876.05,238.339 1873.5,239.5C 1870.56,236.272 1871.23,233.938 1875.5,232.5 Z"/></g>
<g><path style="opacity:1" fill="#515151" d="M 1835.5,230.5 C 1838.72,232.528 1840.89,235.195 1842,238.5C 1839.22,236.229 1837.05,233.563 1835.5,230.5 Z"/></g>
<g><path style="opacity:1" fill="#846807" d="M 647.5,231.5 C 646.71,232.794 645.71,233.961 644.5,235C 641.267,236.386 637.934,237.553 634.5,238.5C 638.347,235.407 642.68,233.074 647.5,231.5 Z"/></g>
<g><path style="opacity:1" fill="#e0cc1d" d="M 1900.5,249.5 C 1900.54,248.417 1900.87,247.417 1901.5,246.5C 1900.28,246.891 1899.45,246.224 1899,244.5C 1897.47,245.729 1896.3,247.229 1895.5,249C 1897.37,247.992 1898.7,248.492 1899.5,250.5C 1895.67,253.136 1892.83,252.469 1891,248.5C 1891.41,248.957 1891.91,249.291 1892.5,249.5C 1893.38,248.24 1894.38,247.074 1895.5,246C 1895.17,245.833 1894.83,245.667 1894.5,245.5C 1893.5,246.833 1892.5,246.833 1891.5,245.5C 1890.42,247.784 1888.75,248.95 1886.5,249C 1888.49,247.16 1888.49,245.993 1886.5,245.5C 1885.5,244.167 1884.5,244.167 1883.5,245.5C 1882.77,246.708 1882.43,248.041 1882.5,249.5C 1881.45,249.649 1880.45,249.483 1879.5,249C 1881.01,248.163 1881.51,246.996 1881,245.5C 1879.65,246.685 1878.48,248.019 1877.5,249.5C 1876.7,249.043 1876.37,248.376 1876.5,247.5C 1878.26,246.738 1879.26,245.404 1879.5,243.5C 1879.5,242.833 1879.5,242.167 1879.5,241.5C 1888,239.918 1896.67,239.418 1905.5,240C 1906.17,240.667 1906.83,241.333 1907.5,242C 1906.13,244.301 1905.47,246.801 1905.5,249.5C 1903.83,249.5 1902.17,249.5 1900.5,249.5 Z"/></g>
<g><path style="opacity:1" fill="#665109" d="M 633.5,238.5 C 631.967,240.245 629.967,241.245 627.5,241.5C 629.033,239.755 631.033,238.755 633.5,238.5 Z"/></g>
<g><path style="opacity:1" fill="#171717" d="M 1833.5,245.5 C 1829.69,247.589 1825.69,247.922 1821.5,246.5C 1822.05,245.228 1822.38,243.894 1822.5,242.5C 1821.65,239.49 1821.15,236.49 1821,233.5C 1822.37,236.618 1823.54,239.784 1824.5,243C 1827.5,243.755 1830,242.922 1832,240.5C 1833.01,242.025 1833.51,243.692 1833.5,245.5 Z"/></g>
<g><path style="opacity:1" fill="#604f12" d="M 620.5,243.5 C 620.167,244.5 619.5,245.167 618.5,245.5C 616.435,245.517 614.435,245.85 612.5,246.5C 612.611,245.883 612.944,245.383 613.5,245C 615.866,244.56 618.199,244.06 620.5,243.5 Z"/></g>
<g><path style="opacity:1" fill="#958445" d="M 696.5,225.5 C 689.454,236.213 680.454,244.88 669.5,251.5C 679.134,243.534 688.134,234.867 696.5,225.5 Z"/></g>
<g><path style="opacity:1" fill="#877b11" d="M 1883.5,245.5 C 1884.5,244.167 1885.5,244.167 1886.5,245.5C 1886.48,247.8 1885.48,248.967 1883.5,249C 1885.49,247.16 1885.49,245.993 1883.5,245.5 Z"/></g>
<g><path style="opacity:0.975" fill="#e8c64d" d="M 540.5,233.5 C 543.768,236.427 547.101,239.427 550.5,242.5C 552.95,244.287 555.616,245.62 558.5,246.5C 559.167,246.5 559.833,246.5 560.5,246.5C 560.833,247.167 561.167,247.833 561.5,248.5C 559.863,247.782 558.197,247.616 556.5,248C 566.362,258.43 578.028,266.096 591.5,271C 604.228,271.818 616.895,271.318 629.5,269.5C 624.816,271.451 619.816,272.451 614.5,272.5C 605.827,272.666 597.16,272.5 588.5,272C 584.317,270.24 579.984,269.073 575.5,268.5C 574.609,267.89 573.609,267.557 572.5,267.5C 570.66,265.331 568.326,263.998 565.5,263.5C 564.833,263.5 564.5,263.167 564.5,262.5C 562.451,259.45 559.784,257.117 556.5,255.5C 554.833,252.5 552.5,250.167 549.5,248.5C 546.686,243.392 543.686,238.392 540.5,233.5 Z"/></g>
<g><path style="opacity:1" fill="#d4c21b" d="M 1876.5,247.5 C 1875.42,248.562 1874.42,248.562 1873.5,247.5C 1874.78,244.988 1875.78,244.988 1876.5,247.5 Z"/></g>
<g><path style="opacity:1" fill="#403a0f" d="M 1900.5,249.5 C 1900.5,250.167 1900.17,250.5 1899.5,250.5C 1898.7,248.492 1897.37,247.992 1895.5,249C 1896.3,247.229 1897.47,245.729 1899,244.5C 1899.45,246.224 1900.28,246.891 1901.5,246.5C 1900.87,247.417 1900.54,248.417 1900.5,249.5 Z"/></g>
<g><path style="opacity:0.004" fill="#372e11" d="M 549.5,248.5 C 552.5,250.167 554.833,252.5 556.5,255.5C 555.761,255.631 555.094,255.464 554.5,255C 552.258,253.23 550.592,251.063 549.5,248.5 Z"/></g>
<g><path style="opacity:1" fill="#665a2f" d="M 560.5,246.5 C 566.354,248.339 572.354,249.339 578.5,249.5C 583.511,249.666 588.511,249.499 593.5,249C 595.058,248.79 596.391,248.29 597.5,247.5C 601.869,247.533 606.202,247.2 610.5,246.5C 605.869,248.716 600.869,249.883 595.5,250C 584.04,250.99 572.707,250.49 561.5,248.5C 561.167,247.833 560.833,247.167 560.5,246.5 Z"/></g>
<g><path style="opacity:1" fill="#fad23f" d="M 696.5,224.5 C 696.5,224.833 696.5,225.167 696.5,225.5C 688.134,234.867 679.134,243.534 669.5,251.5C 662.725,255.057 656.058,258.89 649.5,263C 642.537,264.488 635.87,266.655 629.5,269.5C 616.895,271.318 604.228,271.818 591.5,271C 578.028,266.096 566.362,258.43 556.5,248C 558.197,247.616 559.863,247.782 561.5,248.5C 572.707,250.49 584.04,250.99 595.5,250C 600.869,249.883 605.869,248.716 610.5,246.5C 611.167,246.5 611.833,246.5 612.5,246.5C 614.435,245.85 616.435,245.517 618.5,245.5C 613.81,247.021 609.144,248.855 604.5,251C 596.854,251.903 589.188,252.57 581.5,253C 598.883,263.34 617.55,266.34 637.5,262C 670.384,253.292 688.717,232.125 692.5,198.5C 693.025,190.927 691.858,190.594 689,197.5C 688.184,198.823 687.017,199.489 685.5,199.5C 685.833,198.833 686.167,198.167 686.5,197.5C 686.893,195.716 687.559,194.05 688.5,192.5C 689.478,190.468 690.978,188.802 693,187.5C 693.505,185.482 694.005,183.482 694.5,181.5C 695.167,181.5 695.5,181.167 695.5,180.5C 696.885,179.426 698.051,178.093 699,176.5C 702.73,192.815 701.896,208.815 696.5,224.5 Z"/></g>
<g><path style="opacity:0.039" fill="#433814" d="M 556.5,255.5 C 559.784,257.117 562.451,259.45 564.5,262.5C 561.003,261.089 558.336,258.756 556.5,255.5 Z"/></g>
<g><path style="opacity:0.039" fill="#3d3312" d="M 565.5,263.5 C 568.326,263.998 570.66,265.331 572.5,267.5C 569.674,267.002 567.34,265.669 565.5,263.5 Z"/></g>
<g><path style="opacity:1" fill="#1b1b1b" d="M 1929.5,268.5 C 1924.49,271.064 1919.15,273.064 1913.5,274.5C 1912.57,275.689 1912.24,277.022 1912.5,278.5C 1900.17,281.134 1887.84,281.134 1875.5,278.5C 1875.76,277.022 1875.43,275.689 1874.5,274.5C 1868.22,272.683 1862.22,270.183 1856.5,267C 1859.02,265.659 1861.69,264.826 1864.5,264.5C 1864.5,261.833 1864.5,259.167 1864.5,256.5C 1866.56,256.687 1868.56,257.187 1870.5,258C 1869.55,258.483 1868.55,258.649 1867.5,258.5C 1868.15,262.753 1866.48,265.586 1862.5,267C 1864.22,268.527 1866.22,269.527 1868.5,270C 1872.15,270.499 1875.82,270.665 1879.5,270.5C 1880.17,267.5 1880.83,264.5 1881.5,261.5C 1879.15,261.162 1876.81,260.662 1874.5,260C 1878.87,259.906 1883.21,260.406 1887.5,261.5C 1887.36,263.124 1888.03,264.29 1889.5,265C 1894.18,265.461 1898.85,265.295 1903.5,264.5C 1903.5,263.5 1903.5,262.5 1903.5,261.5C 1911.17,261.365 1918.51,259.698 1925.5,256.5C 1925.34,261.849 1927.67,265.349 1932.5,267C 1931.76,268.039 1930.76,268.539 1929.5,268.5 Z"/></g>
<g><path style="opacity:1" fill="#f1f1f1" d="M 1929.5,268.5 C 1923.94,270.131 1918.28,271.131 1912.5,271.5C 1912.45,268.687 1911.79,266.021 1910.5,263.5C 1915.41,261.753 1920.41,260.419 1925.5,259.5C 1925.34,261.527 1925.5,263.527 1926,265.5C 1927.52,266.163 1928.69,267.163 1929.5,268.5 Z"/></g>
<g><path style="opacity:1" fill="#e4e4e4" d="M 1882.5,265.5 C 1891.47,266.113 1900.47,266.78 1909.5,267.5C 1910.32,269.783 1910.99,272.116 1911.5,274.5C 1911.17,276.167 1910.17,277.167 1908.5,277.5C 1907.74,274.843 1907.07,272.177 1906.5,269.5C 1903.23,268.513 1899.9,268.18 1896.5,268.5C 1896.38,271.205 1897.38,271.872 1899.5,270.5C 1901.03,271.861 1902.7,273.028 1904.5,274C 1903.17,275.333 1903.17,276.667 1904.5,278C 1897.83,278.667 1891.17,278.667 1884.5,278C 1881.99,277.885 1879.99,276.885 1878.5,275C 1879.99,271.865 1881.32,268.698 1882.5,265.5 Z"/></g>
<g><path style="opacity:1" fill="#232323" d="M 1886.5,268.5 C 1887.12,268.611 1887.62,268.944 1888,269.5C 1888.5,271.473 1888.66,273.473 1888.5,275.5C 1887.02,275.762 1885.69,275.429 1884.5,274.5C 1885.71,273.28 1885.71,272.113 1884.5,271C 1885.38,270.292 1886.05,269.458 1886.5,268.5 Z"/></g>
<g><path style="opacity:0.537" fill="#494125" d="M 705.5,224.5 C 694.113,253.298 673.28,271.298 643,278.5C 637.863,279.303 632.697,279.636 627.5,279.5C 627.611,278.883 627.944,278.383 628.5,278C 634.157,277.501 639.824,277.334 645.5,277.5C 645.5,276.167 645.5,274.833 645.5,273.5C 648.96,273.475 652.294,272.808 655.5,271.5C 670.133,264.547 683.133,255.214 694.5,243.5C 696.334,241.023 697.667,238.357 698.5,235.5C 700.565,231.712 702.899,228.045 705.5,224.5 Z"/></g>
<g><path style="opacity:1" fill="#414141" d="M 1893.5,271.5 C 1892.74,270.732 1891.74,270.232 1890.5,270C 1891.94,269.219 1893.28,269.386 1894.5,270.5C 1894.38,271.107 1894.04,271.44 1893.5,271.5 Z"/></g>
<g><path style="opacity:1" fill="#857746" d="M 575.5,268.5 C 579.984,269.073 584.317,270.24 588.5,272C 597.16,272.5 605.827,272.666 614.5,272.5C 605.833,273.167 597.167,273.833 588.5,274.5C 583.764,273.243 579.43,271.243 575.5,268.5 Z"/></g>
<g><path style="opacity:0.016" fill="#2e2712" d="M 572.5,267.5 C 573.609,267.557 574.609,267.89 575.5,268.5C 579.43,271.243 583.764,273.243 588.5,274.5C 593.575,275.603 598.241,277.27 602.5,279.5C 594.606,277.485 586.772,275.151 579,272.5C 576.401,271.271 574.234,269.604 572.5,267.5 Z"/></g>
<g><path style="opacity:1" fill="#1a1a1a" d="M 1893.5,271.5 C 1893.5,273.5 1893.5,275.5 1893.5,277.5C 1892.5,277.5 1891.5,277.5 1890.5,277.5C 1890.46,274.911 1891.46,272.911 1893.5,271.5 Z"/></g>
<g><path style="opacity:1" fill="#161616" d="M 1899.5,272.5 C 1900.85,275.828 1899.52,277.161 1895.5,276.5C 1895.5,275.5 1895.5,274.5 1895.5,273.5C 1896.82,273.33 1897.99,273.663 1899,274.5C 1899.46,273.906 1899.63,273.239 1899.5,272.5 Z"/></g>
</svg>
