<svg width="234" height="234" viewBox="0 0 234 234" fill="none" xmlns="http://www.w3.org/2000/svg">
<g clip-path="url(#clip0_403_4341)">
<path fill-rule="evenodd" clip-rule="evenodd" d="M79.8796 210.599H72.7225C72.5488 210.599 72.4025 210.462 72.4025 210.28V203.122C72.4025 202.94 72.5488 202.802 72.7225 202.802H79.8796C80.0624 202.802 80.1995 202.94 80.1995 203.122V210.28C80.1995 210.462 80.0624 210.599 79.8796 210.599ZM79.8796 218.396C84.3677 218.396 88.0057 214.767 88.0057 210.279V203.122C88.0057 198.634 84.3677 194.996 79.8796 194.996H72.7225C68.2343 194.996 64.6055 198.634 64.6055 203.122V210.279C64.6055 214.767 68.2343 218.396 72.7225 218.396H79.8796Z" fill="#FFA556"/>
<path fill-rule="evenodd" clip-rule="evenodd" d="M13.9031 31.1965H45.1C47.2572 31.1965 49.0031 29.4507 49.0031 27.3025C49.0031 25.1453 47.2573 23.3994 45.1 23.3994H13.9031C11.7459 23.3994 10 25.1453 10 27.3025C10 29.4506 11.7459 31.1965 13.9031 31.1965Z" fill="#FFA556"/>
<path fill-rule="evenodd" clip-rule="evenodd" d="M107.504 191.103H138.701C140.858 191.103 142.604 189.357 142.604 187.2C142.604 185.043 140.858 183.297 138.701 183.297H107.504C105.347 183.297 103.601 185.043 103.601 187.2C103.601 189.357 105.346 191.103 107.504 191.103Z" fill="#FFA556"/>
<path fill-rule="evenodd" clip-rule="evenodd" d="M91.9004 132.521C91.9004 130.363 90.1545 128.617 88.0064 128.617H66.919C61.3341 128.617 56.8004 124.093 56.8004 118.499V56.9194C56.8004 51.3345 61.3341 46.8008 66.919 46.8008H205.39C210.975 46.8008 215.499 51.3345 215.499 56.9194V118.499C215.499 124.093 210.975 128.617 205.39 128.617H115.465C114.651 128.617 113.865 128.873 113.207 129.34L91.9 144.531L91.9004 132.521ZM84.1035 152.1C84.1035 155.272 87.6865 157.118 90.2642 155.281L116.718 136.424H205.391C215.281 136.424 223.307 128.398 223.307 118.499V56.9194C223.307 47.02 215.281 39.0039 205.391 39.0039H66.9204C57.0301 39.0039 49.0049 47.0203 49.0049 56.9194V118.499C49.0049 128.398 57.0213 136.424 66.9204 136.424H84.1049L84.1035 152.1Z" fill="#FFA556"/>
<path fill-rule="evenodd" clip-rule="evenodd" d="M91.9002 128.618H66.9184C61.3335 128.618 56.7998 124.084 56.7998 118.499V56.9197C56.7998 51.3348 61.3335 46.801 66.9184 46.801H142.603V15.4497C142.603 6.92157 135.684 0.00195312 127.156 0.00195312H25.4569C16.9196 0.00195312 10 6.92133 10 15.4497V218.555C10 227.083 16.9194 234.002 25.4569 234.002H127.156C135.684 234.002 142.603 227.083 142.603 218.555V128.619H114.222L91.9 144.533L91.9002 128.618ZM134.806 136.415V218.553C134.806 222.776 131.379 226.204 127.156 226.204H25.4571C21.225 226.204 17.8065 222.776 17.8065 218.553V15.4483C17.8065 11.2253 21.225 7.79766 25.4571 7.79766H127.156C131.379 7.79766 134.806 11.2253 134.806 15.4483V39.0027H66.9184C57.0281 39.0027 49.0029 47.0191 49.0029 56.9182V118.498C49.0029 128.397 57.0284 136.413 66.9184 136.413H84.1029V159.667L116.718 136.413L134.806 136.415Z" fill="#FFA556"/>
<path d="M86.0453 79V67.8H91.2613C92.5627 67.8 93.576 68.0507 94.3013 68.552C95.0267 69.0533 95.3893 69.768 95.3893 70.696C95.3893 71.6133 95.048 72.328 94.3653 72.84C93.6827 73.3413 92.776 73.592 91.6453 73.592L91.9493 72.92C93.208 72.92 94.184 73.1707 94.8773 73.672C95.5707 74.1733 95.9173 74.8987 95.9173 75.848C95.9173 76.8293 95.544 77.6027 94.7973 78.168C94.0613 78.7227 92.984 79 91.5653 79H86.0453ZM88.6213 77.08H91.4693C92.0667 77.08 92.52 76.9627 92.8293 76.728C93.1387 76.4933 93.2933 76.1307 93.2933 75.64C93.2933 75.1707 93.1387 74.824 92.8293 74.6C92.52 74.3653 92.0667 74.248 91.4693 74.248H88.6213V77.08ZM88.6213 72.44H91.0373C91.6027 72.44 92.0293 72.328 92.3173 72.104C92.6053 71.8693 92.7493 71.528 92.7493 71.08C92.7493 70.632 92.6053 70.296 92.3173 70.072C92.0293 69.8373 91.6027 69.72 91.0373 69.72H88.6213V72.44ZM105.647 67.8H108.239V79H105.647V67.8ZM100.559 79H97.9672V67.8H100.559V79ZM105.839 74.408H100.367V72.216H105.839V74.408ZM111.079 79.176C110.887 79.176 110.685 79.16 110.471 79.128C110.269 79.096 110.045 79.0533 109.799 79L109.959 76.808C110.109 76.8507 110.263 76.872 110.423 76.872C110.861 76.872 111.202 76.696 111.447 76.344C111.693 75.9813 111.869 75.464 111.975 74.792C112.082 74.12 112.151 73.304 112.183 72.344L112.343 67.8H120.951V79H118.391V69.32L118.983 69.912H114.039L114.567 69.288L114.471 72.248C114.439 73.3467 114.365 74.3227 114.247 75.176C114.13 76.0293 113.949 76.7547 113.703 77.352C113.458 77.9493 113.122 78.4027 112.695 78.712C112.269 79.0213 111.73 79.176 111.079 79.176ZM128.28 79V67.8H130.424L135.192 75.704H134.056L138.744 67.8H140.888L140.904 79H138.472L138.456 71.528H138.92L135.16 77.816H134.008L130.168 71.528H130.712V79H128.28ZM146.07 72.312H151.462V74.328H146.07V72.312ZM146.262 76.92H152.358V79H143.686V67.8H152.15V69.88H146.262V76.92ZM159.748 79.192C158.884 79.192 158.078 79.0533 157.332 78.776C156.596 78.488 155.956 78.0827 155.412 77.56C154.868 77.0373 154.441 76.424 154.132 75.72C153.833 75.016 153.684 74.2427 153.684 73.4C153.684 72.5573 153.833 71.784 154.132 71.08C154.441 70.376 154.868 69.7627 155.412 69.24C155.966 68.7173 156.612 68.3173 157.348 68.04C158.084 67.752 158.889 67.608 159.764 67.608C160.734 67.608 161.609 67.7787 162.388 68.12C163.177 68.4507 163.838 68.9413 164.372 69.592L162.708 71.128C162.324 70.6907 161.897 70.3653 161.428 70.152C160.958 69.928 160.446 69.816 159.892 69.816C159.369 69.816 158.889 69.9013 158.452 70.072C158.014 70.2427 157.636 70.488 157.316 70.808C156.996 71.128 156.745 71.5067 156.564 71.944C156.393 72.3813 156.308 72.8667 156.308 73.4C156.308 73.9333 156.393 74.4187 156.564 74.856C156.745 75.2933 156.996 75.672 157.316 75.992C157.636 76.312 158.014 76.5573 158.452 76.728C158.889 76.8987 159.369 76.984 159.892 76.984C160.446 76.984 160.958 76.8773 161.428 76.664C161.897 76.44 162.324 76.104 162.708 75.656L164.372 77.192C163.838 77.8427 163.177 78.3387 162.388 78.68C161.609 79.0213 160.729 79.192 159.748 79.192ZM172.226 79V75.464L172.866 76.024H169.794C168.824 76.024 167.986 75.864 167.282 75.544C166.578 75.224 166.04 74.76 165.666 74.152C165.293 73.544 165.106 72.8187 165.106 71.976C165.106 71.1013 165.304 70.3547 165.698 69.736C166.104 69.1067 166.669 68.6267 167.394 68.296C168.12 67.9653 168.973 67.8 169.954 67.8H174.786V79H172.226ZM165.138 79L167.922 74.984H170.546L167.874 79H165.138ZM172.226 74.632V69.24L172.866 69.912H170.018C169.282 69.912 168.717 70.0827 168.322 70.424C167.938 70.7653 167.746 71.272 167.746 71.944C167.746 72.5947 167.933 73.096 168.306 73.448C168.68 73.8 169.229 73.976 169.954 73.976H172.866L172.226 74.632ZM177.592 79V67.8H180.168V76.888H185.16V67.8H187.736V79H177.592ZM186.952 81.368V78.392L187.512 79H185.16V76.888H189.336V81.368H186.952Z" fill="#1E2639"/>
<path d="M90.5093 94.36C91.4907 94.52 92.2427 94.888 92.7653 95.464C93.288 96.0293 93.5493 96.7333 93.5493 97.576C93.5493 98.2267 93.3787 98.8293 93.0373 99.384C92.696 99.928 92.1733 100.365 91.4693 100.696C90.776 101.027 89.9227 101.192 88.9093 101.192C88.12 101.192 87.3413 101.091 86.5733 100.888C85.816 100.675 85.1707 100.376 84.6373 99.992L85.6453 98.008C86.072 98.328 86.5627 98.5787 87.1173 98.76C87.6827 98.9307 88.2587 99.016 88.8453 99.016C89.496 99.016 90.008 98.8933 90.3813 98.648C90.7547 98.392 90.9413 98.0347 90.9413 97.576C90.9413 96.6587 90.2427 96.2 88.8453 96.2H87.6613V94.488L89.9653 91.88H85.1973V89.8H93.0373V91.48L90.5093 94.36ZM99.5461 101.192C98.6181 101.192 97.7914 100.963 97.0661 100.504C96.3407 100.045 95.7701 99.384 95.3541 98.52C94.9487 97.6453 94.7461 96.6053 94.7461 95.4C94.7461 94.1947 94.9487 93.16 95.3541 92.296C95.7701 91.4213 96.3407 90.7547 97.0661 90.296C97.7914 89.8373 98.6181 89.608 99.5461 89.608C100.474 89.608 101.301 89.8373 102.026 90.296C102.751 90.7547 103.317 91.4213 103.722 92.296C104.138 93.16 104.346 94.1947 104.346 95.4C104.346 96.6053 104.138 97.6453 103.722 98.52C103.317 99.384 102.751 100.045 102.026 100.504C101.301 100.963 100.474 101.192 99.5461 101.192ZM99.5461 99C100.229 99 100.762 98.7067 101.146 98.12C101.541 97.5333 101.738 96.6267 101.738 95.4C101.738 94.1733 101.541 93.2667 101.146 92.68C100.762 92.0933 100.229 91.8 99.5461 91.8C98.8741 91.8 98.3407 92.0933 97.9461 92.68C97.5621 93.2667 97.3701 94.1733 97.3701 95.4C97.3701 96.6267 97.5621 97.5333 97.9461 98.12C98.3407 98.7067 98.8741 99 99.5461 99ZM110.405 101.192C109.477 101.192 108.651 100.963 107.925 100.504C107.2 100.045 106.629 99.384 106.213 98.52C105.808 97.6453 105.605 96.6053 105.605 95.4C105.605 94.1947 105.808 93.16 106.213 92.296C106.629 91.4213 107.2 90.7547 107.925 90.296C108.651 89.8373 109.477 89.608 110.405 89.608C111.333 89.608 112.16 89.8373 112.885 90.296C113.611 90.7547 114.176 91.4213 114.581 92.296C114.997 93.16 115.205 94.1947 115.205 95.4C115.205 96.6053 114.997 97.6453 114.581 98.52C114.176 99.384 113.611 100.045 112.885 100.504C112.16 100.963 111.333 101.192 110.405 101.192ZM110.405 99C111.088 99 111.621 98.7067 112.005 98.12C112.4 97.5333 112.597 96.6267 112.597 95.4C112.597 94.1733 112.4 93.2667 112.005 92.68C111.621 92.0933 111.088 91.8 110.405 91.8C109.733 91.8 109.2 92.0933 108.805 92.68C108.421 93.2667 108.229 94.1733 108.229 95.4C108.229 96.6267 108.421 97.5333 108.805 98.12C109.2 98.7067 109.733 99 110.405 99Z" fill="#1E2639"/>
</g>
<defs>
<clipPath id="clip0_403_4341">
<rect width="234" height="234" fill="white"/>
</clipPath>
</defs>
</svg>
