<svg width="234" height="234" viewBox="0 0 234 234" fill="none" xmlns="http://www.w3.org/2000/svg">
<g clip-path="url(#clip0_403_4352)">
<path fill-rule="evenodd" clip-rule="evenodd" d="M79.8796 210.599H72.7225C72.5488 210.599 72.4025 210.462 72.4025 210.28V203.122C72.4025 202.94 72.5488 202.802 72.7225 202.802H79.8796C80.0624 202.802 80.1995 202.94 80.1995 203.122V210.28C80.1995 210.462 80.0624 210.599 79.8796 210.599ZM79.8796 218.396C84.3677 218.396 88.0057 214.767 88.0057 210.279V203.122C88.0057 198.634 84.3677 194.996 79.8796 194.996H72.7225C68.2343 194.996 64.6055 198.634 64.6055 203.122V210.279C64.6055 214.767 68.2343 218.396 72.7225 218.396H79.8796Z" fill="#FFA556"/>
<path fill-rule="evenodd" clip-rule="evenodd" d="M13.9031 31.1965H45.1C47.2572 31.1965 49.0031 29.4507 49.0031 27.3025C49.0031 25.1453 47.2573 23.3994 45.1 23.3994H13.9031C11.7459 23.3994 10 25.1453 10 27.3025C10 29.4506 11.7459 31.1965 13.9031 31.1965Z" fill="#FFA556"/>
<path fill-rule="evenodd" clip-rule="evenodd" d="M107.504 191.103H138.701C140.858 191.103 142.604 189.357 142.604 187.2C142.604 185.043 140.858 183.297 138.701 183.297H107.504C105.347 183.297 103.601 185.043 103.601 187.2C103.601 189.357 105.346 191.103 107.504 191.103Z" fill="#FFA556"/>
<path fill-rule="evenodd" clip-rule="evenodd" d="M91.9004 132.521C91.9004 130.363 90.1545 128.617 88.0064 128.617H66.919C61.3341 128.617 56.8004 124.093 56.8004 118.499V76.9194C56.8004 71.3345 61.3341 66.8008 66.919 66.8008H165.39C170.975 66.8008 175.499 71.3345 175.499 76.9194V118.499C175.499 124.093 170.975 128.617 165.39 128.617H115.465C114.651 128.617 113.865 128.873 113.207 129.34L91.9 144.531L91.9004 132.521ZM84.1035 152.1C84.1035 155.272 87.6865 157.118 90.2642 155.281L116.718 136.424H165.391C175.281 136.424 183.307 128.398 183.307 118.499V76.9194C183.307 67.02 175.281 59.0039 165.391 59.0039H66.9204C57.0301 59.0039 49.0049 67.0203 49.0049 76.9194V118.499C49.0049 128.398 57.0213 136.424 66.9204 136.424H84.1049L84.1035 152.1Z" fill="#FFA556"/>
<path fill-rule="evenodd" clip-rule="evenodd" d="M91.9002 128.618H66.9184C61.3335 128.618 56.7998 124.084 56.7998 118.499V76.9196C56.7998 71.3348 61.3335 66.801 66.9184 66.801H142.603V15.4497C142.603 6.92157 135.684 0.00195312 127.156 0.00195312H25.4569C16.9196 0.00195312 10 6.92133 10 15.4497V218.555C10 227.083 16.9194 234.002 25.4569 234.002H127.156C135.684 234.002 142.603 227.083 142.603 218.555V128.619H114.222L91.9 144.533L91.9002 128.618ZM134.806 136.415V218.553C134.806 222.776 131.379 226.204 127.156 226.204H25.4571C21.225 226.204 17.8065 222.776 17.8065 218.553V15.4483C17.8065 11.2253 21.225 7.79766 25.4571 7.79766H127.156C131.379 7.79766 134.806 11.2253 134.806 15.4483V59.0027H66.9184C57.0282 59.0027 49.0029 67.0191 49.0029 76.9182V118.498C49.0029 128.397 57.0284 136.413 66.9184 136.413H84.1029V159.667L116.718 136.413L134.806 136.415Z" fill="#FFA556"/>
<path d="M86.0453 102V90.8H91.2613C92.5627 90.8 93.576 91.0507 94.3013 91.552C95.0267 92.0533 95.3893 92.768 95.3893 93.696C95.3893 94.6133 95.048 95.328 94.3653 95.84C93.6827 96.3413 92.776 96.592 91.6453 96.592L91.9493 95.92C93.208 95.92 94.184 96.1707 94.8773 96.672C95.5707 97.1733 95.9173 97.8987 95.9173 98.848C95.9173 99.8293 95.544 100.603 94.7973 101.168C94.0613 101.723 92.984 102 91.5653 102H86.0453ZM88.6213 100.08H91.4693C92.0667 100.08 92.52 99.9627 92.8293 99.728C93.1387 99.4933 93.2933 99.1307 93.2933 98.64C93.2933 98.1707 93.1387 97.824 92.8293 97.6C92.52 97.3653 92.0667 97.248 91.4693 97.248H88.6213V100.08ZM88.6213 95.44H91.0373C91.6027 95.44 92.0293 95.328 92.3173 95.104C92.6053 94.8693 92.7493 94.528 92.7493 94.08C92.7493 93.632 92.6053 93.296 92.3173 93.072C92.0293 92.8373 91.6027 92.72 91.0373 92.72H88.6213V95.44ZM105.647 90.8H108.239V102H105.647V90.8ZM100.559 102H97.9672V90.8H100.559V102ZM105.839 97.408H100.367V95.216H105.839V97.408ZM111.079 102.176C110.887 102.176 110.685 102.16 110.471 102.128C110.269 102.096 110.045 102.053 109.799 102L109.959 99.808C110.109 99.8507 110.263 99.872 110.423 99.872C110.861 99.872 111.202 99.696 111.447 99.344C111.693 98.9813 111.869 98.464 111.975 97.792C112.082 97.12 112.151 96.304 112.183 95.344L112.343 90.8H120.951V102H118.391V92.32L118.983 92.912H114.039L114.567 92.288L114.471 95.248C114.439 96.3467 114.365 97.3227 114.247 98.176C114.13 99.0293 113.949 99.7547 113.703 100.352C113.458 100.949 113.122 101.403 112.695 101.712C112.269 102.021 111.73 102.176 111.079 102.176ZM131.144 102.192C130.365 102.192 129.592 102.091 128.824 101.888C128.056 101.675 127.405 101.376 126.872 100.992L127.88 99.008C128.306 99.3173 128.802 99.5627 129.368 99.744C129.933 99.9253 130.504 100.016 131.08 100.016C131.73 100.016 132.242 99.888 132.616 99.632C132.989 99.376 133.176 99.024 133.176 98.576C133.176 98.1493 133.01 97.8133 132.68 97.568C132.349 97.3227 131.816 97.2 131.08 97.2H129.896V95.488L133.016 91.952L133.304 92.88H127.432V90.8H135.272V92.48L132.168 96.016L130.856 95.264H131.608C132.984 95.264 134.024 95.5733 134.728 96.192C135.432 96.8107 135.784 97.6053 135.784 98.576C135.784 99.2053 135.618 99.7973 135.288 100.352C134.957 100.896 134.45 101.339 133.768 101.68C133.085 102.021 132.21 102.192 131.144 102.192ZM141.78 102.192C140.863 102.192 140.042 101.968 139.316 101.52C138.591 101.061 138.02 100.4 137.604 99.536C137.188 98.672 136.98 97.6267 136.98 96.4C136.98 95.1733 137.188 94.128 137.604 93.264C138.02 92.4 138.591 91.744 139.316 91.296C140.042 90.8373 140.863 90.608 141.78 90.608C142.708 90.608 143.53 90.8373 144.244 91.296C144.97 91.744 145.54 92.4 145.956 93.264C146.372 94.128 146.58 95.1733 146.58 96.4C146.58 97.6267 146.372 98.672 145.956 99.536C145.54 100.4 144.97 101.061 144.244 101.52C143.53 101.968 142.708 102.192 141.78 102.192ZM141.78 100C142.218 100 142.596 99.8773 142.916 99.632C143.247 99.3867 143.503 98.9973 143.684 98.464C143.876 97.9307 143.972 97.2427 143.972 96.4C143.972 95.5573 143.876 94.8693 143.684 94.336C143.503 93.8027 143.247 93.4133 142.916 93.168C142.596 92.9227 142.218 92.8 141.78 92.8C141.354 92.8 140.975 92.9227 140.644 93.168C140.324 93.4133 140.068 93.8027 139.876 94.336C139.695 94.8693 139.604 95.5573 139.604 96.4C139.604 97.2427 139.695 97.9307 139.876 98.464C140.068 98.9973 140.324 99.3867 140.644 99.632C140.975 99.8773 141.354 100 141.78 100ZM152.64 102.192C151.722 102.192 150.901 101.968 150.176 101.52C149.45 101.061 148.88 100.4 148.464 99.536C148.048 98.672 147.84 97.6267 147.84 96.4C147.84 95.1733 148.048 94.128 148.464 93.264C148.88 92.4 149.45 91.744 150.176 91.296C150.901 90.8373 151.722 90.608 152.64 90.608C153.568 90.608 154.389 90.8373 155.104 91.296C155.829 91.744 156.4 92.4 156.816 93.264C157.232 94.128 157.44 95.1733 157.44 96.4C157.44 97.6267 157.232 98.672 156.816 99.536C156.4 100.4 155.829 101.061 155.104 101.52C154.389 101.968 153.568 102.192 152.64 102.192ZM152.64 100C153.077 100 153.456 99.8773 153.776 99.632C154.106 99.3867 154.362 98.9973 154.544 98.464C154.736 97.9307 154.832 97.2427 154.832 96.4C154.832 95.5573 154.736 94.8693 154.544 94.336C154.362 93.8027 154.106 93.4133 153.776 93.168C153.456 92.9227 153.077 92.8 152.64 92.8C152.213 92.8 151.834 92.9227 151.504 93.168C151.184 93.4133 150.928 93.8027 150.736 94.336C150.554 94.8693 150.464 95.5573 150.464 96.4C150.464 97.2427 150.554 97.9307 150.736 98.464C150.928 98.9973 151.184 99.3867 151.504 99.632C151.834 99.8773 152.213 100 152.64 100Z" fill="#1E2639"/>
</g>
<defs>
<clipPath id="clip0_403_4352">
<rect width="234" height="234" fill="white"/>
</clipPath>
</defs>
</svg>
