<svg width="70" height="82" viewBox="0 0 70 82" fill="none" xmlns="http://www.w3.org/2000/svg">
<circle cx="35" cy="41" r="30" fill="#FFA556"/>
<path d="M63.75 61.125V15.125H6.25V61.125H63.75ZM9.125 18H60.875V58.25H9.125V18Z" fill="black"/>
<path d="M68.063 64H1.93799C1.14377 64 0.500488 64.6433 0.500488 65.4375C0.500488 66.2317 1.14377 66.875 1.93799 66.875H17.8945L12.7195 79.2665C12.4212 79.996 12.7698 80.8297 13.4957 81.1352C13.6754 81.1711 13.8623 81.1711 14.042 81.1352C14.6206 81.1316 15.1452 80.7794 15.3645 80.2439L21.1145 66.7604H33.563V76.8234C33.563 77.6176 34.2063 78.2609 35.0005 78.2609C35.7947 78.2609 36.438 77.6176 36.438 76.8234V66.8763H48.973L54.723 80.3599C54.9422 80.8953 55.4669 81.2475 56.0455 81.2511C56.2252 81.287 56.4121 81.287 56.5918 81.2511C57.3177 80.9456 57.6663 80.1119 57.368 79.3824L52.1067 66.8759H68.0632C68.8574 66.8759 69.5007 66.2326 69.5007 65.4384C69.5007 64.6442 68.8574 64.0009 68.0632 64.0009L68.063 64Z" fill="black"/>
<path d="M1.93701 12.249H68.062C68.8562 12.249 69.4995 11.6057 69.4995 10.8115C69.4995 10.0173 68.8562 9.374 68.062 9.374H36.437V9.11525C38.4171 8.41447 39.6067 6.39122 39.2509 4.32122C38.8951 2.25122 37.0983 0.738281 34.9995 0.738281C32.9007 0.738281 31.1039 2.25122 30.7481 4.32122C30.3923 6.39122 31.5819 8.41449 33.562 9.11525V9.374H1.93701C1.14279 9.374 0.499512 10.0173 0.499512 10.8115C0.499512 11.6057 1.14279 12.249 1.93701 12.249ZM35 3.624C35.5822 3.624 36.1068 3.9726 36.3297 4.51165C36.5489 5.04712 36.4267 5.66524 36.017 6.0785C35.6037 6.48819 34.9856 6.61037 34.4501 6.39116C33.9111 6.16834 33.5625 5.64366 33.5625 5.06148C33.5625 4.26726 34.2058 3.62398 35 3.62398L35 3.624Z" fill="black"/>
<path d="M56.5629 52.5008H55.1254V24.8143C55.147 24.6706 55.147 24.5268 55.1254 24.3831C54.9278 23.9015 54.4678 23.5781 53.9467 23.5493H53.7455C47.708 23.8081 39.8884 31.2543 36.294 40.1379C35.7513 42.003 34.49 43.5771 32.7865 44.5079C30.3212 44.9966 27.766 44.533 25.6278 43.2142C24.2945 42.5134 22.8427 42.0749 21.3441 41.9205C18.674 42.3337 16.3128 43.8862 14.8754 46.1755V22.3125C14.8754 21.5183 14.2321 20.875 13.4379 20.875C12.6436 20.875 12.0004 21.5183 12.0004 22.3125V55.3755H56.5633C57.3576 55.3755 58.0008 54.7322 58.0008 53.938C58.0008 53.1437 57.3571 52.5008 56.5629 52.5008ZM52.2504 52.5008H49.3754V27.8623C50.2703 27.3197 51.2405 26.9027 52.2504 26.626V52.5008ZM46.5004 30.0758V52.5008H43.6254V33.0658C44.5095 31.9984 45.469 30.9994 46.5004 30.0758ZM40.7504 37.2633V52.5004H37.8754V43.0989C38.2564 42.434 38.5942 41.7404 38.8817 41.0289C39.4136 39.7315 40.0389 38.4709 40.7504 37.2633ZM33.7641 46.9804C34.199 46.7935 34.6122 46.5599 35.0004 46.2904V52.5004H32.1254V47.4117C32.686 47.3362 33.2359 47.1888 33.7641 46.9804ZM26.3754 46.5204C27.3062 46.8869 28.2693 47.1637 29.2504 47.3541V52.5004H26.3754V46.5204ZM23.5004 45.3129V52.5004H20.6254V44.7667C20.8159 44.684 21.0207 44.6373 21.2292 44.6229C22.0198 44.7307 22.7852 44.9643 23.5004 45.3129ZM14.8754 51.5516C15.6912 50.0134 16.6543 48.5616 17.7504 47.2103V52.5003H14.8754V51.5516Z" fill="black"/>
</svg>
