<svg width="72" height="72" viewBox="0 0 72 72" fill="none" xmlns="http://www.w3.org/2000/svg">
<circle cx="36" cy="40" r="30" fill="#FFA556"/>
<path d="M71.5344 19.8918C71.5094 19.4637 71.3344 19.0574 71.0375 18.7481L53.2535 0.964058C53.1067 0.823434 52.9348 0.704682 52.7473 0.623434C52.691 0.598434 52.6379 0.579683 52.5817 0.564059C52.4285 0.510934 52.2692 0.476555 52.1067 0.467187C52.0692 0.464062 52.0379 0.445312 52.0004 0.445312H27.1132C26.1288 0.445312 25.3351 1.24218 25.3351 2.22347V7.55787H2.22225C1.24097 7.55787 0.444092 8.35162 0.444092 9.33603V69.78C0.444092 70.7613 1.24096 71.5582 2.22225 71.5582H44.8879C45.3597 71.5582 45.8128 71.3707 46.1472 71.0363C46.4785 70.7019 46.666 70.2519 46.666 69.7801V64.4457H69.7788C70.76 64.4457 71.5569 63.6519 71.5569 62.6675V20.0019C71.5569 19.9644 71.5351 19.93 71.5351 19.8925L71.5344 19.8918ZM53.7784 6.51342L65.488 18.223H53.7784V6.51342ZM28.8912 13.6259L40.5976 25.3355H28.888L28.8912 13.6259ZM43.1128 68.0011H4V11.1139H25.3344V27.1139C25.3344 28.0952 26.1282 28.8889 27.1126 28.8889H43.1126L43.1128 68.0011ZM46.669 60.8886L46.6659 27.1134C46.6659 27.0759 46.6472 27.0415 46.644 27.004V27.0009C46.6222 26.5728 46.444 26.1665 46.1472 25.8572L28.888 8.59796V4.00108H50.2224V20.0011C50.2224 20.9824 51.0192 21.7792 52.0005 21.7792H68.0005V60.8888L46.669 60.8886Z" fill="black"/>
<path d="M34.2216 36H12.8872C11.9059 36 11.1122 36.7969 11.1122 37.7782C11.1122 38.7594 11.9059 39.5563 12.8872 39.5563H34.2216C35.2029 39.5563 35.9998 38.7594 35.9998 37.7782C35.9998 36.7969 35.2029 36 34.2216 36Z" fill="black"/>
<path d="M34.2216 46.668H12.8872C11.9059 46.668 11.1122 47.4648 11.1122 48.4461C11.1122 49.4274 11.9059 50.2243 12.8872 50.2243H34.2216C35.2029 50.2243 35.9998 49.4274 35.9998 48.4461C35.9998 47.4649 35.2029 46.668 34.2216 46.668Z" fill="black"/>
<path d="M26.6032 57.3359H12.8872C11.9059 57.3359 11.1122 58.1297 11.1122 59.1141C11.1122 60.0954 11.9059 60.8891 12.8872 60.8891H26.6032C27.5845 60.8891 28.3814 60.0954 28.3814 59.1141C28.3814 58.1297 27.5845 57.3359 26.6032 57.3359Z" fill="black"/>
</svg>
