<svg width="61" height="81" viewBox="0 0 61 81" fill="none" xmlns="http://www.w3.org/2000/svg">
<circle cx="31" cy="45" r="30" fill="#FFA556"/>
<path d="M47.7642 42.9017C47.6738 42.0117 46.9646 41.299 46.0747 41.299H27.2939C26.8489 41.299 26.4039 41.4763 26.0493 41.8344C25.6947 42.189 25.5139 42.634 25.6043 43.1694L26.4943 56.3423C26.5847 57.2323 27.2939 57.945 28.1839 57.945H46.9647C47.4097 57.945 47.8547 57.7677 48.2092 57.4096C48.5638 57.055 48.7446 56.61 48.6542 56.0746L47.7642 42.9017ZM27.4749 43.1694H31.7476L32.3699 52.6915C32.3699 53.2269 32.8149 53.5815 33.3503 53.5815H33.4407C33.9761 53.5815 34.3307 53.1365 34.3307 52.6011L33.6145 43.1689H39.7541L40.6441 55.9831H28.3648L27.4749 43.1694ZM42.5141 55.9836L41.6241 43.1694H45.8968L46.7868 55.9836H42.5141ZM56.3999 20.2065C56.3095 19.3165 55.6003 18.6038 54.7103 18.6038H49.7249V14.6892C49.7249 5.34422 42.5145 0.449219 35.4849 0.449219C33.7953 0.449219 32.1022 0.716913 30.4995 1.24883C22.2218 -1.50812 11.2737 3.11925 11.2737 14.6896V18.6042H6.28826C5.39826 18.6042 4.59869 19.3169 4.59869 20.2069L0.593689 78.679C0.593689 79.124 0.684077 79.569 1.03869 79.9236C1.21599 80.1913 1.48369 80.2782 1.8383 80.2782C2.01561 80.2782 2.2833 80.1878 2.37369 80.1009C2.46408 80.0105 10.2064 72.0909 10.2064 72.0909L16.7041 78.6755L6.37833 78.679C5.84294 78.679 5.39791 79.124 5.39791 79.6594C5.39791 80.1948 5.84291 80.6398 6.37833 80.6398H58.7112C59.1562 80.6398 59.6916 80.4625 59.9558 80.1044C60.3104 79.7498 60.4912 79.3048 60.4008 78.7694L56.3999 20.2065ZM47.8545 14.6892V25.2784C47.8545 25.7234 47.4999 26.0781 47.0549 26.0781C46.6099 26.0781 46.2553 25.7234 46.2553 25.2784L46.2518 14.6892C46.2518 7.30151 40.6441 3.91844 35.481 3.91844C32.6337 3.91844 29.9637 4.89886 28.0933 6.58844C25.8683 8.54573 24.7106 11.3062 24.7106 14.6889V25.2781C24.7106 25.7231 24.356 26.0777 23.911 26.0777C23.466 26.0777 23.1113 25.7231 23.1113 25.2781V14.6889C23.1113 6.58844 29.3413 2.31964 35.4806 2.31964C41.6236 2.31964 47.8533 6.58888 47.8533 14.6889L47.8545 14.6892ZM38.0645 7.56922C37.7968 7.12422 37.2649 6.94691 36.8199 7.21461C36.3749 7.4823 36.1976 8.01422 36.4653 8.45918C37.4457 10.2392 37.9776 12.3738 37.9776 14.6892V18.6038H36.3749V14.6892C36.3749 11.1292 35.0399 8.19147 32.5471 6.23418C33.4371 5.96649 34.4176 5.78918 35.4849 5.78918C39.7576 5.78918 44.3849 8.54961 44.3849 14.6892V18.6038H39.8444V14.6892C39.8444 12.0192 39.2222 9.7038 38.0645 7.56922ZM30.4995 7.12422C33.079 8.63651 34.5045 11.3065 34.5045 14.6892V18.6038H26.5849V14.6892C26.5849 11.9288 27.5653 9.61693 29.3453 8.01422C29.6095 7.65961 30.0545 7.39191 30.4995 7.12422ZM21.1545 14.6892V18.6038H16.614V14.6892C16.614 11.9288 17.5945 9.61693 19.3745 8.01422C20.619 6.94693 22.2218 6.23422 23.9149 5.87964C22.2218 8.1916 21.1545 11.1292 21.1545 14.6892ZM11.1874 20.4742H13.9478L17.8624 77.08L11.1874 70.3146V20.4742ZM13.1446 14.6892C13.1446 5.61211 20.9774 1.43 27.7389 2.49711C27.0262 2.94211 26.4039 3.38711 25.7816 3.92253C22.8439 3.83214 20.087 4.81253 18.1262 6.59253C15.9012 8.54982 14.7434 11.3102 14.7434 14.693V18.6075H13.1407C13.1442 18.6041 13.1446 14.6892 13.1446 14.6892ZM6.46965 20.4742H9.23007V70.3142L2.55507 77.0797L6.46965 20.4742ZM19.8196 78.6785L15.8146 20.4742H21.2451V25.2788C21.2451 26.7911 22.4028 27.9488 23.9151 27.9488C25.4274 27.9488 26.5851 26.7911 26.5851 25.2788V20.4742H44.3851V25.2788C44.3851 26.7911 45.5428 27.9488 47.0551 27.9488C48.5674 27.9488 49.7251 26.7911 49.7251 25.2788V20.4742H54.5297L58.5347 78.6785H19.8196Z" fill="black"/>
</svg>
