<svg width="320" height="40" viewBox="0 0 320 40" fill="none" xmlns="http://www.w3.org/2000/svg">
<path d="M10.0607 20L24 6.06066L37.9393 20L24 33.9393L10.0607 20Z" stroke="white" stroke-width="1.5"/>
<path d="M20.3077 19L23.3077 22.75L28.5577 17.5" stroke="white" stroke-width="1.5"/>
<path d="M51.884 15.662H50.064V25H51.884V20.842H55.832V25H57.652V15.662H55.832V19.274H51.884V15.662ZM67.1407 25H69.1007L65.1947 15.662H63.7667L59.7487 25H61.7227L62.5487 23.04H66.3147L67.1407 25ZM63.1227 21.556L64.4527 18.196L65.7827 21.556H63.1227ZM70.715 25H72.563L73.515 19.246L75.909 25H76.525L79.031 19.246L79.871 25H81.719L80.151 15.662H78.835L76.245 21.598L73.767 15.662H72.451L70.715 25ZM89.5362 15.662V19.722C89.5362 21.01 89.3822 21.71 89.2002 22.172C88.9202 22.872 88.3882 23.46 87.7162 23.432V27.1H89.3962V25H95.1362V27.1H96.8162V23.432H95.8362V15.662H89.5362ZM91.3002 17.23H94.0162V23.432H90.2502C90.5162 23.18 90.7822 22.844 90.9782 22.326C91.1462 21.878 91.3002 21.164 91.3002 19.722V17.23ZM103.555 15.452C100.615 15.452 98.5711 17.496 98.5711 20.338C98.5711 23.18 100.615 25.21 103.555 25.21C106.495 25.21 108.539 23.18 108.539 20.338C108.539 17.496 106.495 15.452 103.555 15.452ZM103.555 23.558C101.735 23.558 100.447 22.228 100.447 20.338C100.447 18.448 101.735 17.104 103.555 17.104C105.375 17.104 106.663 18.448 106.663 20.338C106.663 22.228 105.375 23.558 103.555 23.558ZM111.216 15.662V25H114.352C115.164 25 116.018 24.86 116.718 24.244C117.362 23.67 117.516 22.9 117.516 22.354C117.516 21.864 117.404 21.136 116.844 20.604C116.606 20.38 116.242 20.114 115.626 20.016C115.878 19.876 116.676 19.386 116.676 18.182C116.676 17.398 116.354 16.67 115.808 16.25C115.052 15.662 114.044 15.662 113.526 15.662H111.216ZM113.036 17.146H113.568C114.31 17.146 114.968 17.468 114.968 18.322C114.968 19.512 113.834 19.54 113.554 19.54H113.036V17.146ZM113.036 20.94H113.708C114.1 20.94 114.562 20.94 114.954 21.122C115.542 21.388 115.64 21.892 115.64 22.186C115.64 22.55 115.514 22.998 115.066 23.264C114.66 23.502 114.156 23.516 113.82 23.516H113.036V20.94ZM125.381 15.662H120.201V25H125.381V23.432H122.021V20.884H125.241V19.316H122.021V17.23H125.381V15.662ZM128.146 15.662V25H129.966V21.542H131.142C132.22 21.542 132.99 21.234 133.508 20.716C134.222 20.002 134.278 18.994 134.278 18.63C134.278 17.958 134.082 17.048 133.326 16.376C132.64 15.774 131.912 15.662 130.862 15.662H128.146ZM129.966 17.23H130.596C131.03 17.23 131.506 17.258 131.884 17.524C132.15 17.72 132.402 18.07 132.402 18.588C132.402 18.994 132.234 19.414 131.898 19.68C131.506 19.974 131.058 19.974 130.708 19.974H129.966V17.23ZM142.449 15.662H139.747C138.963 15.662 138.081 15.732 137.353 16.376C136.863 16.81 136.429 17.524 136.429 18.546C136.429 19.624 136.919 20.394 137.479 20.8C137.773 21.01 138.151 21.164 138.501 21.22L135.729 25H137.913L140.293 21.388H140.629V25H142.449V15.662ZM140.629 17.146V19.96H140.097C139.733 19.96 138.305 19.96 138.305 18.546C138.305 17.16 139.733 17.146 140.069 17.146H140.629ZM150.762 15.662H145.582V25H150.762V23.432H147.402V20.884H150.622V19.316H147.402V17.23H150.762V15.662ZM158.868 17.23V15.662H152.848V17.23H154.948V25H156.768V17.23H158.868ZM166.269 21.934L167.977 19.638L166.997 18.938L164.785 21.934L166.997 24.93L167.977 24.23L166.269 21.934ZM169.013 21.934L170.721 19.638L169.741 18.938L167.529 21.934L169.741 24.93L170.721 24.23L169.013 21.934ZM175.3 15.662H173.48V25H175.3V20.842H179.248V25H181.068V15.662H179.248V19.274H175.3V15.662ZM183.165 15.662L186.637 22.396L185.335 25H187.323L191.649 15.662H189.661L187.659 20.366L185.293 15.662H183.165ZM198.072 15.662V19.61L194.964 15.662H192.892L196.462 19.974L192.766 25H194.866L197.862 20.814L198.072 21.024V25H199.808V21.024L200.018 20.814L203.014 25H205.114L201.418 19.974L204.988 15.662H202.916L199.808 19.61V15.662H198.072ZM209.075 15.662H207.255V25H209.075V20.842H213.023V25H214.843V15.662H213.023V19.274H209.075V15.662ZM224.332 25H226.292L222.386 15.662H220.958L216.94 25H218.914L219.74 23.04H223.506L224.332 25ZM220.314 21.556L221.644 18.196L222.974 21.556H220.314ZM232.65 15.662V25H234.47V17.23H238.222V25H240.042V15.662H232.65ZM247.702 15.452C244.762 15.452 242.718 17.496 242.718 20.338C242.718 23.18 244.762 25.21 247.702 25.21C250.642 25.21 252.686 23.18 252.686 20.338C252.686 17.496 250.642 15.452 247.702 15.452ZM247.702 23.558C245.882 23.558 244.594 22.228 244.594 20.338C244.594 18.448 245.882 17.104 247.702 17.104C249.522 17.104 250.81 18.448 250.81 20.338C250.81 22.228 249.522 23.558 247.702 23.558ZM254.887 25H256.735L257.687 19.246L260.081 25H260.697L263.203 19.246L264.043 25H265.891L264.323 15.662H263.007L260.417 21.598L257.939 15.662H256.623L254.887 25ZM273.08 15.452C270.14 15.452 268.096 17.496 268.096 20.338C268.096 23.18 270.14 25.21 273.08 25.21C276.02 25.21 278.064 23.18 278.064 20.338C278.064 17.496 276.02 15.452 273.08 15.452ZM273.08 23.558C271.26 23.558 269.972 22.228 269.972 20.338C269.972 18.448 271.26 17.104 273.08 17.104C274.9 17.104 276.188 18.448 276.188 20.338C276.188 22.228 274.9 23.558 273.08 23.558ZM280.742 25H291.634V27.1H293.314V23.432H292.194V15.662H290.374V23.432H287.378V15.662H285.558V23.432H282.562V15.662H280.742V25ZM295.523 25H298.813C299.597 25 300.759 24.874 301.459 23.852C301.767 23.404 301.963 22.802 301.963 22.172C301.963 21.276 301.613 20.562 301.095 20.086C300.367 19.414 299.485 19.316 298.799 19.316H297.343V15.662H295.523V25ZM297.343 20.884H298.435C299.779 20.884 300.087 21.584 300.087 22.172C300.087 23.432 298.729 23.432 298.407 23.432H297.343V20.884ZM305.646 21.934L303.938 24.23L304.918 24.93L307.13 21.934L304.918 18.938L303.938 19.638L305.646 21.934ZM308.39 21.934L306.682 24.23L307.662 24.93L309.874 21.934L307.662 18.938L306.682 19.638L308.39 21.934Z" fill="white"/>
</svg>
