<svg width="430" height="60" viewBox="0 0 430 60" fill="none" xmlns="http://www.w3.org/2000/svg">
<path d="M9.91421 30L28.5 11.4142L47.0858 30L28.5 48.5858L9.91421 30Z" stroke="#302F2D" stroke-width="2"/>
<path d="M23.5769 28L27.5769 33L34.5769 26" stroke="#302F2D" stroke-width="2"/>
<path d="M62.62 23.66H60.02V37H62.62V31.06H68.26V37H70.86V23.66H68.26V28.82H62.62V23.66ZM83.9867 37H86.7867L81.2067 23.66H79.1667L73.4267 37H76.2467L77.4267 34.2H82.8067L83.9867 37ZM78.2467 32.08L80.1467 27.28L82.0467 32.08H78.2467ZM88.6642 37H91.3042L92.6642 28.78L96.0842 37H96.9642L100.544 28.78L101.744 37H104.384L102.144 23.66H100.264L96.5642 32.14L93.0242 23.66H91.1442L88.6642 37ZM114.695 23.66V29.46C114.695 31.3 114.475 32.3 114.215 32.96C113.815 33.96 113.055 34.8 112.095 34.76V40H114.495V37H122.695V40H125.095V34.76H123.695V23.66H114.695ZM117.215 25.9H121.095V34.76H115.715C116.095 34.4 116.475 33.92 116.755 33.18C116.995 32.54 117.215 31.52 117.215 29.46V25.9ZM134.293 23.36C130.093 23.36 127.173 26.28 127.173 30.34C127.173 34.4 130.093 37.3 134.293 37.3C138.493 37.3 141.413 34.4 141.413 30.34C141.413 26.28 138.493 23.36 134.293 23.36ZM134.293 34.94C131.693 34.94 129.853 33.04 129.853 30.34C129.853 27.64 131.693 25.72 134.293 25.72C136.893 25.72 138.733 27.64 138.733 30.34C138.733 33.04 136.893 34.94 134.293 34.94ZM144.809 23.66V37H149.289C150.449 37 151.669 36.8 152.669 35.92C153.589 35.1 153.809 34 153.809 33.22C153.809 32.52 153.649 31.48 152.849 30.72C152.509 30.4 151.989 30.02 151.109 29.88C151.469 29.68 152.609 28.98 152.609 27.26C152.609 26.14 152.149 25.1 151.369 24.5C150.289 23.66 148.849 23.66 148.109 23.66H144.809ZM147.409 25.78H148.169C149.229 25.78 150.169 26.24 150.169 27.46C150.169 29.16 148.549 29.2 148.149 29.2H147.409V25.78ZM147.409 31.2H148.369C148.929 31.2 149.589 31.2 150.149 31.46C150.989 31.84 151.129 32.56 151.129 32.98C151.129 33.5 150.949 34.14 150.309 34.52C149.729 34.86 149.009 34.88 148.529 34.88H147.409V31.2ZM164.615 23.66H157.215V37H164.615V34.76H159.815V31.12H164.415V28.88H159.815V25.9H164.615V23.66ZM168.137 23.66V37H170.737V32.06H172.417C173.957 32.06 175.057 31.62 175.797 30.88C176.817 29.86 176.897 28.42 176.897 27.9C176.897 26.94 176.617 25.64 175.537 24.68C174.557 23.82 173.517 23.66 172.017 23.66H168.137ZM170.737 25.9H171.637C172.257 25.9 172.937 25.94 173.477 26.32C173.857 26.6 174.217 27.1 174.217 27.84C174.217 28.42 173.977 29.02 173.497 29.4C172.937 29.82 172.297 29.82 171.797 29.82H170.737V25.9ZM188.141 23.66H184.281C183.161 23.66 181.901 23.76 180.861 24.68C180.161 25.3 179.541 26.32 179.541 27.78C179.541 29.32 180.241 30.42 181.041 31C181.461 31.3 182.001 31.52 182.501 31.6L178.541 37H181.661L185.061 31.84H185.541V37H188.141V23.66ZM185.541 25.78V29.8H184.781C184.261 29.8 182.221 29.8 182.221 27.78C182.221 25.8 184.261 25.78 184.741 25.78H185.541ZM199.588 23.66H192.188V37H199.588V34.76H194.788V31.12H199.388V28.88H194.788V25.9H199.588V23.66ZM210.74 25.9V23.66H202.14V25.9H205.14V37H207.74V25.9H210.74ZM220.455 32.62L222.895 29.34L221.495 28.34L218.335 32.62L221.495 36.9L222.895 35.9L220.455 32.62ZM224.375 32.62L226.815 29.34L225.415 28.34L222.255 32.62L225.415 36.9L226.815 35.9L224.375 32.62ZM232.929 23.66H230.329V37H232.929V31.06H238.569V37H241.169V23.66H238.569V28.82H232.929V23.66ZM243.735 23.66L248.695 33.28L246.835 37H249.675L255.855 23.66H253.015L250.155 30.38L246.775 23.66H243.735ZM264.602 23.66V29.3L260.162 23.66H257.202L262.302 29.82L257.022 37H260.022L264.302 31.02L264.602 31.32V37H267.082V31.32L267.382 31.02L271.662 37H274.662L269.382 29.82L274.482 23.66H271.522L267.082 29.3V23.66H264.602ZM279.893 23.66H277.293V37H279.893V31.06H285.533V37H288.133V23.66H285.533V28.82H279.893V23.66ZM301.26 37H304.06L298.48 23.66H296.44L290.7 37H293.52L294.7 34.2H300.08L301.26 37ZM295.52 32.08L297.42 27.28L299.32 32.08H295.52ZM312.286 23.66V37H314.886V25.9H320.246V37H322.846V23.66H312.286ZM333.359 23.36C329.159 23.36 326.239 26.28 326.239 30.34C326.239 34.4 329.159 37.3 333.359 37.3C337.559 37.3 340.479 34.4 340.479 30.34C340.479 26.28 337.559 23.36 333.359 23.36ZM333.359 34.94C330.759 34.94 328.919 33.04 328.919 30.34C328.919 27.64 330.759 25.72 333.359 25.72C335.959 25.72 337.799 27.64 337.799 30.34C337.799 33.04 335.959 34.94 333.359 34.94ZM343.195 37H345.835L347.195 28.78L350.615 37H351.495L355.075 28.78L356.275 37H358.915L356.675 23.66H354.795L351.095 32.14L347.555 23.66H345.675L343.195 37ZM368.758 23.36C364.558 23.36 361.638 26.28 361.638 30.34C361.638 34.4 364.558 37.3 368.758 37.3C372.958 37.3 375.878 34.4 375.878 30.34C375.878 26.28 372.958 23.36 368.758 23.36ZM368.758 34.94C366.158 34.94 364.318 33.04 364.318 30.34C364.318 27.64 366.158 25.72 368.758 25.72C371.358 25.72 373.198 27.64 373.198 30.34C373.198 33.04 371.358 34.94 368.758 34.94ZM379.274 37H394.834V40H397.234V34.76H395.634V23.66H393.034V34.76H388.754V23.66H386.154V34.76H381.874V23.66H379.274V37ZM399.961 37H404.661C405.781 37 407.441 36.82 408.441 35.36C408.881 34.72 409.161 33.86 409.161 32.96C409.161 31.68 408.661 30.66 407.921 29.98C406.881 29.02 405.621 28.88 404.641 28.88H402.561V23.66H399.961V37ZM402.561 31.12H404.121C406.041 31.12 406.481 32.12 406.481 32.96C406.481 34.76 404.541 34.76 404.081 34.76H402.561V31.12ZM413.995 32.62L411.555 35.9L412.955 36.9L416.115 32.62L412.955 28.34L411.555 29.34L413.995 32.62ZM417.915 32.62L415.475 35.9L416.875 36.9L420.035 32.62L416.875 28.34L415.475 29.34L417.915 32.62Z" fill="#302F2D"/>
</svg>
