<svg width="54" height="54" viewBox="0 0 54 54" fill="none" xmlns="http://www.w3.org/2000/svg">
<path d="M20.4187 33.7502C20.4187 34.9314 20.0812 35.9439 19.2374 36.6189C18.3937 37.2939 17.3812 37.6314 16.0312 37.6314H14.5124V41.5127H12.1499V29.7002H16.0312C17.3812 29.7002 18.5624 30.0377 19.2374 30.7127C19.9124 31.3877 20.4187 32.4002 20.4187 33.7502ZM18.0562 33.7502C18.0562 33.2439 17.8874 32.7377 17.5499 32.4002C17.2124 32.0627 16.7062 31.8939 16.0312 31.8939H14.5124V35.7752H16.0312C16.7062 35.7752 17.2124 35.6064 17.5499 35.2689C17.8874 34.7627 18.0562 34.2564 18.0562 33.7502Z" fill="white"/>
<path d="M32.3999 35.6064C32.3999 37.6314 31.8937 38.9814 30.8812 39.9939C29.8687 41.0064 28.3499 41.5127 26.3249 41.5127H22.2749V29.7002H26.3249C28.1812 29.7002 29.5312 30.2064 30.7124 31.2189C31.8937 32.4002 32.3999 33.7502 32.3999 35.6064ZM30.0374 35.6064C30.0374 34.4252 29.6999 33.5814 29.0249 32.9064C28.3499 32.2314 27.5062 31.8939 26.3249 31.8939H24.2999V39.6564H25.9874C28.8562 39.4877 30.0374 38.3064 30.0374 35.6064Z" fill="white"/>
<path d="M41.85 29.7002V31.7252H36.7875V34.4252H41.6813V36.4502H36.7875V41.5127H34.5938V29.7002H41.85Z" fill="white"/>
<path d="M43.875 28.3503H10.125C9.61875 28.3503 9.28125 28.0128 9.28125 27.5065V3.375C9.28125 2.86875 9.61875 2.53125 10.125 2.53125H30.375C30.5438 2.53125 30.8813 2.7 31.05 2.7L44.55 16.3685C44.7188 16.5372 44.7188 16.706 44.7188 17.0435V27.506C44.7188 27.8435 44.3813 28.3497 43.875 28.3497V28.3503ZM10.9685 26.6628H43.031V17.3813L30.0375 4.21875H10.969L10.9685 26.6628Z" fill="white"/>
<path d="M43.875 51.4688H10.125C9.61875 51.4688 9.28125 51.1313 9.28125 50.625V43.875C9.28125 43.3688 9.61875 43.0312 10.125 43.0312H43.875C44.3813 43.0312 44.7188 43.3688 44.7188 43.875V50.625C44.7188 51.1313 44.3813 51.4688 43.875 51.4688ZM10.9685 49.7813H43.031V44.7188H10.9685V49.7813Z" fill="white"/>
<path d="M43.875 17.8878H30.375C29.8688 17.8878 29.5312 17.5503 29.5312 17.044V3.37556C29.5312 3.03806 29.7 2.70056 30.0375 2.53181C30.375 2.36306 30.7125 2.53181 30.8813 2.70056L44.2128 16.2006C44.3815 16.3693 44.5503 16.5381 44.5503 16.8756C44.719 17.5506 44.3815 17.8881 43.8753 17.8881L43.875 17.8878ZM31.2185 16.2003H41.85L31.2185 5.40029V16.2003Z" fill="white"/>
<path d="M50.625 44.7191H3.375C2.86875 44.7191 2.53125 44.3816 2.53125 43.8754V27.3379C2.53125 26.8316 2.86875 26.4941 3.375 26.4941H50.625C51.1313 26.4941 51.4688 26.8316 51.4688 27.3379V43.8754C51.4688 44.3816 51.1313 44.7191 50.625 44.7191ZM4.21848 43.0316H49.781V28.1816H4.21848V43.0316Z" fill="white"/>
</svg>
