<svg width="14" height="14" viewBox="0 0 14 14" fill="none" xmlns="http://www.w3.org/2000/svg">
<path d="M10.3324 7.70337C9.30056 7.70337 8.39611 8.24711 7.88619 9.06524L5.64187 7.9415C5.85124 7.569 5.97436 7.13524 5.97436 6.67775C5.97436 6.21713 5.85124 5.7865 5.64187 5.41212L8.61003 3.93025C8.98628 4.48087 9.61816 4.84526 10.3332 4.84526C11.482 4.84526 12.4164 3.91089 12.4164 2.76206C12.4164 1.61393 11.4833 0.677734 10.3327 0.677734C9.184 0.677734 8.24955 1.6121 8.24955 2.76094C8.24955 2.99782 8.29267 3.22657 8.36642 3.44281L5.31826 4.96281C4.84452 4.42343 4.15013 4.08094 3.37458 4.08094C1.94271 4.08094 0.779541 5.24719 0.779541 6.67902C0.779541 8.10964 1.94266 9.27406 3.37458 9.27406C4.14708 9.27406 4.84209 8.93156 5.31826 8.39219L7.64146 9.55219C7.51646 9.87718 7.44458 10.2241 7.44458 10.5922C7.44458 12.1828 8.74084 13.4784 10.3308 13.4784C11.9246 13.4784 13.2171 12.1822 13.2171 10.5922C13.2208 8.99782 11.9264 7.70339 10.3327 7.70339L10.3324 7.70337Z" fill="#30333A"/>
</svg>
