<svg width="15" height="15" viewBox="0 0 15 15" fill="none" xmlns="http://www.w3.org/2000/svg">
<path d="M12.0754 14.2081C11.9583 14.2081 11.8419 14.1734 11.7421 14.1058L7.97046 11.5474L5.94759 13.003C5.78894 13.117 5.58445 13.1458 5.40023 13.0799C5.21625 13.0139 5.07652 12.8615 5.02664 12.6725L4.01093 8.82326L0.381678 7.43555C0.153202 7.34815 0.00167632 7.12957 1.38152e-05 6.88494C-0.00164869 6.64031 0.146869 6.41968 0.374236 6.32919L14.174 0.83817C14.2366 0.81157 14.3029 0.796211 14.3697 0.792094C14.3936 0.790669 14.4176 0.79067 14.4414 0.792015C14.5798 0.800249 14.7157 0.856616 14.8218 0.960641C14.8328 0.971408 14.8433 0.982412 14.8532 0.993891C14.941 1.09427 14.9893 1.21667 14.9984 1.34135C15.0006 1.3727 15.0005 1.40445 14.9977 1.4362C14.9958 1.45884 14.9926 1.4814 14.988 1.50381L12.6587 13.7255C12.6212 13.9219 12.4876 14.0862 12.303 14.1628C12.2297 14.1932 12.1524 14.2081 12.0754 14.2081ZM8.30162 10.3371L11.6612 12.6159L13.4737 3.10607L6.9276 9.40506L8.28579 10.3264C8.29125 10.3298 8.29647 10.3335 8.30162 10.3371ZM5.50489 9.83035L5.95472 11.5348L6.92388 10.8374L5.65483 9.97657C5.59585 9.93667 5.54534 9.88695 5.50489 9.83035ZM2.22746 6.86982L4.71947 7.82259C4.89799 7.89084 5.03274 8.04094 5.0815 8.22571L5.39754 9.42343C5.41203 9.28528 5.47465 9.15529 5.57638 9.05736L11.8139 3.0554L2.22746 6.86982Z" fill="#30333A"/>
</svg>

